<?xml version="1.0" encoding="utf-8"?>
<!-- Generator: Adobe Illustrator 23.0.3, SVG Export Plug-In . SVG Version: 6.00 Build 0)  -->
<svg version="1.1" id="Layer_1" xmlns="http://www.w3.org/2000/svg" xmlns:xlink="http://www.w3.org/1999/xlink" x="0px" y="0px"
	 viewBox="0 0 120.529 17.737" style="enable-background:new 0 0 120.529 17.737;" xml:space="preserve">
<style type="text/css">
	.st0{fill:#D51F26;}
	.st1{fill:#FFFFFF;}
	.st2{enable-background:new    ;}
	.st3{fill:#1D1D1B;}
</style>
<g>
	<g>
		<ellipse class="st0" cx="113.259" cy="10.526" rx="6.237" ry="6.159"/>
		<path d="M113.259,17.153c-3.664,0-6.627-2.963-6.627-6.627s2.963-6.627,6.627-6.627c3.664,0,6.627,2.963,6.627,6.627
			S116.923,17.153,113.259,17.153z M113.259,4.757c-3.196,0-5.769,2.573-5.769,5.769s2.573,5.769,5.769,5.769
			s5.769-2.573,5.769-5.769S116.455,4.757,113.259,4.757z"/>
	</g>
	<g>
		<g>
			<path class="st1" d="M109.984,9.123L109.984,9.123l-1.013,0.468l-0.156-0.78l1.247-0.624h0.858v5.145h-0.935L109.984,9.123
				L109.984,9.123z"/>
			<path class="st1" d="M115.052,8.889c-0.156,0-0.312,0-0.546,0c-1.091,0.078-1.637,0.78-1.715,1.481l0,0
				c0.234-0.312,0.624-0.546,1.17-0.546c0.858,0,1.559,0.624,1.559,1.715c0,1.013-0.702,1.871-1.793,1.871
				c-1.247,0-1.949-0.935-1.949-2.261c0-1.013,0.39-1.793,0.935-2.339c0.468-0.468,1.091-0.702,1.793-0.78c0.234,0,0.39,0,0.468,0
				L115.052,8.889z M114.584,11.695c0-0.624-0.312-1.013-0.935-1.013c-0.312,0-0.624,0.234-0.78,0.546
				c0,0.078-0.078,0.156-0.078,0.312c0,0.702,0.39,1.247,1.013,1.247C114.272,12.787,114.584,12.319,114.584,11.695z"/>
		</g>
		<g>
			<g>
				<path class="st1" d="M116.767,8.343v0.935h0.935v0.39h-0.935v0.935h-0.39V9.669h-0.935v-0.39h0.935V8.343
					C116.299,8.343,116.767,8.343,116.767,8.343z"/>
			</g>
		</g>
	</g>
</g>
<g>
	<path d="M0.6,8.22h2.958c1.323,0,1.791,0.039,2.18,0.195c0.739,0.35,1.168,1.051,1.168,1.868c0,0.778-0.234,1.168-1.012,1.557
		c0.817,0.273,1.362,1.051,1.284,1.907c0,1.284-1.012,2.141-2.491,2.141H0.6v-1.245h0.584V9.465H0.6V8.22L0.6,8.22z M2.779,9.465
		v1.868h1.518c0.545,0.039,1.051-0.35,1.09-0.895c0-0.039,0-0.078,0-0.078c0-0.506-0.506-0.895-1.207-0.895L2.779,9.465L2.779,9.465
		z M2.779,12.54v2.102h1.635c0.623,0.039,1.168-0.389,1.207-1.012c0,0,0,0,0-0.039c0-0.662-0.545-1.09-1.362-1.09L2.779,12.54
		L2.779,12.54z"/>
	<path d="M13.639,13.98c-0.273,1.284-1.323,2.063-2.725,2.063c-1.635,0-2.841-1.284-2.841-3.075s1.207-3.075,2.841-3.075
		c0.895,0,1.752,0.428,2.257,1.207c0.389,0.662,0.623,1.401,0.584,2.18H9.552c0.156,1.518,1.129,1.596,1.401,1.596
		c0.545,0.039,1.051-0.35,1.207-0.856L13.639,13.98L13.639,13.98z M12.16,12.268c0-0.662-0.545-1.168-1.168-1.168h-0.039
		c-0.662,0-1.207,0.506-1.323,1.129L12.16,12.268L12.16,12.268z"/>
	<path d="M18.504,12.073h2.686v3.814h-0.856v-1.207c-0.156,0.273-0.35,0.506-0.584,0.739c-0.506,0.428-1.129,0.662-1.752,0.662
		c-1.791,0-3.192-1.752-3.192-4.009s1.401-4.048,3.153-4.048c0.973-0.039,1.829,0.506,2.296,1.323V8.142h0.817v2.452h-0.856
		c-0.078-0.35-0.234-0.662-0.428-0.934c-0.389-0.506-1.012-0.817-1.635-0.856c-0.934,0-2.335,0.817-2.335,3.192
		c0,1.868,1.012,3.231,2.335,3.231c1.051-0.039,1.907-0.817,2.102-1.829c0.039-0.195,0.039-0.428,0.039-0.623h-1.829L18.504,12.073
		L18.504,12.073z"/>
	<path d="M27.729,15.926h-1.674v-1.051c-0.389,0.739-1.168,1.168-1.985,1.168c-0.973,0.078-1.829-0.701-1.907-1.674
		c0-0.039,0-0.078,0-0.117c0-1.129,0.973-1.674,3.308-1.907l0.545-0.039v-0.584c0-0.662-0.506-1.09-1.323-1.09
		c-0.817,0-1.245,0.273-1.401,1.051h-0.895c0.078-0.467,0.311-0.895,0.662-1.207c0.428-0.35,1.012-0.506,1.557-0.506
		c1.207,0,2.218,0.545,2.218,2.024v3.231h0.817L27.729,15.926L27.729,15.926z M26.055,12.89l-0.545,0.078
		c-1.791,0.234-2.374,0.545-2.374,1.284c0.039,0.662,0.584,1.129,1.207,1.129c0.856-0.039,1.596-0.662,1.713-1.518V12.89
		L26.055,12.89z"/>
	<path d="M30.181,11.139c0.273-0.389,0.778-1.207,1.868-1.207c0.778,0,1.207,0.389,1.362,1.207c0.156-0.273,0.311-0.506,0.545-0.739
		c0.35-0.311,0.778-0.506,1.245-0.506c0.895,0,1.401,0.584,1.401,1.596v3.697h0.817v0.701h-1.635v-4.087
		c0-0.817-0.273-1.207-0.856-1.207c-1.012,0-1.557,1.207-1.557,1.635v2.958h0.856v0.701h-1.713v-4.204
		c0-0.739-0.273-1.051-0.856-1.051c-0.895,0-1.557,1.129-1.557,1.674v2.919h0.856v0.701h-2.53v-0.701h0.856v-4.515h-0.856V10.01
		h1.713L30.181,11.139L30.181,11.139z"/>
	<path d="M38.316,7.869h1.635v3.386c0.234-0.428,0.895-1.284,1.907-1.284c1.323,0,2.335,1.362,2.335,3.075
		c0,1.596-1.09,2.958-2.335,2.958c-1.051,0-1.557-0.701-1.907-1.168v1.09h-1.674v-0.701h0.817V8.57h-0.778V7.869L38.316,7.869z
		 M39.95,13.435c0,0.973,0.739,1.752,1.674,1.829c1.012,0,1.635-0.895,1.635-2.335s-0.662-2.296-1.635-2.296
		c-0.856,0-1.713,0.934-1.713,1.79L39.95,13.435L39.95,13.435z"/>
	<path d="M44.692,7.869h1.674v7.356h0.778v0.701h-2.491v-0.701h0.856V8.531h-0.817V7.869L44.692,7.869z"/>
	<path d="M52.866,14.291c-0.078,0.35-0.234,0.623-0.467,0.895c-0.467,0.545-1.129,0.856-1.868,0.856
		c-1.596,0-2.725-1.245-2.725-3.036c0-1.713,1.129-3.036,2.569-3.036c1.44,0,2.608,1.129,2.608,3.192H48.74
		c0.078,0.856,0.273,1.362,0.662,1.752c0.311,0.273,0.701,0.428,1.09,0.428c0.662,0,1.09-0.311,1.401-1.012L52.866,14.291
		L52.866,14.291z M52.01,12.501c0-0.545-0.195-1.051-0.584-1.479c-0.273-0.234-0.623-0.389-0.973-0.35
		c-0.739,0.039-1.362,0.545-1.557,1.245c-0.039,0.195-0.117,0.389-0.117,0.584H52.01L52.01,12.501z"/>
	<path d="M56.563,8.22h1.868l2.141,6.461h0.584v1.245h-1.752l-0.506-1.674h-2.725l-0.506,1.674h-1.791v-1.245h0.584L56.563,8.22z
		 M57.498,9.66l-1.012,3.425h2.024L57.498,9.66z"/>
	<path d="M61.078,10.049h2.335v1.129H62.83l0.817,3.464l0.973-4.593h1.518l0.973,4.515l0.778-3.386h-0.584v-1.129h2.335v1.129
		h-0.506l-1.245,4.71h-1.557L65.36,11.84l-0.934,4.048h-1.557l-1.284-4.71h-0.506L61.078,10.049L61.078,10.049z"/>
	<path d="M75.168,14.798h0.506v1.129h-1.829v-0.701c-0.428,0.545-1.09,0.817-1.791,0.817c-1.168,0-2.063-0.778-2.063-1.829
		c0-1.713,1.946-1.907,3.814-2.063c0-0.895-0.311-1.168-1.051-1.168s-1.012,0.35-1.051,0.895v0.039l-1.401-0.039
		c0.078-1.168,1.012-1.907,2.413-1.907c1.635,0,2.491,0.739,2.491,2.063L75.168,14.798L75.168,14.798z M73.767,13.163
		c-1.362,0.117-2.257,0.234-2.257,1.051c0,0.467,0.389,0.778,0.973,0.778c0.701,0,1.284-0.545,1.323-1.245v-0.039v-0.545H73.767z"/>
	<path d="M78.434,10.983c0.389-0.739,0.817-1.051,1.479-1.051c0.234,0,0.428,0.039,0.662,0.078v1.362
		c-0.234-0.039-0.467-0.078-0.701-0.078c-0.739-0.039-1.362,0.506-1.401,1.207v2.257h0.701v1.129h-2.725v-1.129h0.584v-3.581h-0.584
		v-1.129h1.985L78.434,10.983L78.434,10.983z"/>
	<path d="M86.452,13.98c-0.273,1.284-1.323,2.063-2.725,2.063c-1.635,0-2.841-1.284-2.841-3.075s1.207-3.075,2.841-3.075
		c0.895,0,1.752,0.428,2.257,1.207c0.389,0.662,0.623,1.401,0.584,2.18h-4.204c0.156,1.518,1.129,1.596,1.401,1.596
		c0.545,0.039,1.051-0.35,1.207-0.856L86.452,13.98L86.452,13.98z M84.934,12.268c0-0.662-0.545-1.168-1.168-1.168h-0.039
		c-0.662,0-1.207,0.506-1.323,1.129L84.934,12.268L84.934,12.268z"/>
	<g class="st2">
		<path d="M101.393,4.754c0.187,0,0.334,0.046,0.44,0.138c0.105,0.092,0.158,0.218,0.158,0.377c0,0.12-0.027,0.224-0.081,0.314
			c-0.054,0.09-0.141,0.152-0.261,0.185v0.005c0.057,0.011,0.103,0.029,0.14,0.055c0.036,0.026,0.064,0.057,0.085,0.092
			c0.021,0.036,0.037,0.076,0.047,0.12c0.01,0.044,0.018,0.09,0.023,0.138c0.004,0.048,0.006,0.096,0.008,0.146
			c0.002,0.05,0.006,0.098,0.014,0.146c0.007,0.048,0.018,0.093,0.032,0.136c0.014,0.043,0.034,0.081,0.062,0.114h-0.292
			c-0.018-0.02-0.031-0.048-0.037-0.082c-0.006-0.035-0.011-0.074-0.012-0.117c-0.002-0.043-0.004-0.089-0.006-0.139
			c-0.002-0.049-0.007-0.098-0.016-0.146c-0.008-0.048-0.017-0.093-0.028-0.136c-0.011-0.043-0.029-0.081-0.053-0.113
			c-0.024-0.032-0.055-0.058-0.093-0.077c-0.039-0.019-0.09-0.029-0.154-0.029h-0.639v0.841h-0.262V4.754L101.393,4.754
			L101.393,4.754z M101.448,5.647c0.055-0.01,0.103-0.027,0.145-0.054s0.074-0.062,0.099-0.108c0.025-0.045,0.037-0.103,0.037-0.175
			c0-0.099-0.028-0.18-0.083-0.242c-0.055-0.062-0.144-0.093-0.267-0.093h-0.65V5.66h0.546
			C101.335,5.66,101.393,5.656,101.448,5.647z"/>
	</g>
	<g>
		<path d="M101.202,7.714c-1.052,0-1.907-0.856-1.907-1.907s0.856-1.907,1.907-1.907s1.907,0.856,1.907,1.907
			S102.254,7.714,101.202,7.714z M101.202,4.211c-0.88,0-1.596,0.716-1.596,1.596s0.716,1.596,1.596,1.596
			c0.88,0,1.596-0.716,1.596-1.596S102.082,4.211,101.202,4.211z"/>
	</g>
	<g>
		<path class="st3" d="M87.267,15.155h0.727v0.712h-0.727V15.155z"/>
		<path class="st3" d="M88.643,13.756c0-1.282,0.79-2.166,1.931-2.166c1.118,0,1.931,0.915,1.931,2.166
			c0,1.306-0.798,2.205-1.947,2.205C89.418,15.961,88.643,15.069,88.643,13.756z M90.551,15.437c0.798,0,1.275-0.641,1.275-1.697
			c0-0.993-0.5-1.627-1.275-1.627c-0.758,0-1.228,0.633-1.228,1.658C89.324,14.819,89.785,15.437,90.551,15.437z"/>
		<path class="st3" d="M94.148,12.622c0.203-0.438,0.313-0.571,0.5-0.75c0.219-0.188,0.493-0.289,0.766-0.289
			c0.102,0,0.242,0.016,0.454,0.047v0.618c-0.211-0.039-0.336-0.055-0.446-0.055c-1.142,0-1.275,1.181-1.275,1.243v1.939h0.719
			v0.493h-1.924v-0.493h0.602v-3.222h-0.626v-0.5h1.228L94.148,12.622L94.148,12.622z"/>
		<path class="st3" d="M99.168,14.835c-0.383,0.54-0.805,0.719-1.267,0.719c-1.009,0-1.705-0.829-1.705-2.025
			c0-1.134,0.68-1.939,1.634-1.939c0.774,0,1.118,0.493,1.337,0.813v-0.751h1.189v0.5H99.77v3.456c0,1.017-0.649,1.595-1.791,1.595
			c-0.696,0-1.29-0.305-1.572-0.798c-0.055-0.102-0.102-0.203-0.172-0.414h0.68c0.25,0.508,0.547,0.696,1.11,0.696
			c0.712,0,1.142-0.367,1.142-0.977L99.168,14.835L99.168,14.835z M99.168,13.208c0-0.461-0.563-1.118-1.204-1.118
			c-0.688,0-1.11,0.563-1.11,1.478c0,0.931,0.43,1.494,1.15,1.494c0.618,0,1.165-0.602,1.165-1.095V13.208z"/>
	</g>
</g>
<g class="st2">
	<path d="M7.093,1.24h2.102v0.423H7.597V2.96h1.477v0.417H7.597v1.766H7.093C7.093,5.143,7.093,1.24,7.093,1.24z"/>
	<path d="M12.252,3.718c0,1.037-0.718,1.489-1.396,1.489c-0.759,0-1.344-0.556-1.344-1.442c0-0.938,0.614-1.488,1.39-1.488
		C11.708,2.276,12.252,2.861,12.252,3.718z M10.028,3.748c0,0.614,0.353,1.077,0.851,1.077c0.487,0,0.851-0.457,0.851-1.089
		c0-0.475-0.237-1.077-0.84-1.077S10.028,3.214,10.028,3.748z"/>
	<path d="M12.894,3.214c0-0.33-0.006-0.614-0.023-0.875h0.446l0.017,0.55h0.023c0.128-0.376,0.434-0.614,0.776-0.614
		c0.058,0,0.098,0.006,0.145,0.017v0.481c-0.052-0.012-0.104-0.017-0.174-0.017c-0.359,0-0.614,0.272-0.683,0.654
		c-0.012,0.07-0.023,0.15-0.023,0.238v1.494h-0.504V3.214z"/>
	<path d="M16.015,3.099c0-0.29-0.006-0.527-0.023-0.759h0.446l0.023,0.452h0.017c0.156-0.266,0.417-0.515,0.88-0.515
		c0.382,0,0.672,0.232,0.793,0.562h0.012c0.087-0.156,0.197-0.278,0.313-0.365c0.168-0.128,0.353-0.197,0.62-0.197
		c0.371,0,0.921,0.243,0.921,1.216v1.65h-0.498V3.556c0-0.539-0.197-0.863-0.608-0.863c-0.29,0-0.515,0.214-0.602,0.463
		c-0.023,0.069-0.041,0.162-0.041,0.255v1.732H17.77v-1.68c0-0.446-0.197-0.77-0.585-0.77c-0.319,0-0.55,0.255-0.631,0.51
		c-0.029,0.075-0.041,0.162-0.041,0.249v1.691h-0.498L16.015,3.099L16.015,3.099z"/>
	<path d="M23.381,3.718c0,1.037-0.718,1.489-1.396,1.489c-0.759,0-1.344-0.556-1.344-1.442c0-0.938,0.614-1.488,1.39-1.488
		C22.836,2.276,23.381,2.861,23.381,3.718z M21.156,3.748c0,0.614,0.353,1.077,0.851,1.077c0.487,0,0.851-0.457,0.851-1.089
		c0-0.475-0.237-1.077-0.84-1.077S21.156,3.214,21.156,3.748z"/>
	<path d="M24.022,3.214c0-0.33-0.006-0.614-0.023-0.875h0.446l0.017,0.55h0.023c0.128-0.376,0.434-0.614,0.776-0.614
		c0.058,0,0.098,0.006,0.145,0.017v0.481c-0.052-0.012-0.104-0.017-0.174-0.017c-0.359,0-0.614,0.272-0.683,0.654
		c-0.012,0.07-0.023,0.15-0.023,0.238v1.494h-0.504C24.022,5.143,24.022,3.214,24.022,3.214z"/>
	<path d="M26.142,3.834c0.012,0.689,0.452,0.973,0.961,0.973c0.365,0,0.585-0.064,0.776-0.145l0.087,0.365
		c-0.18,0.081-0.487,0.174-0.933,0.174c-0.863,0-1.378-0.567-1.378-1.413s0.498-1.512,1.315-1.512c0.915,0,1.158,0.805,1.158,1.32
		c0,0.104-0.012,0.185-0.018,0.238C28.111,3.834,26.142,3.834,26.142,3.834z M27.636,3.469c0.006-0.324-0.133-0.828-0.707-0.828
		c-0.515,0-0.741,0.475-0.782,0.828H27.636z"/>
	<path d="M30.553,1.552c0.006,0.174-0.122,0.313-0.324,0.313c-0.18,0-0.307-0.139-0.307-0.313c0-0.18,0.133-0.319,0.319-0.319
		C30.432,1.234,30.553,1.373,30.553,1.552z M29.986,5.143V2.34h0.51v2.803L29.986,5.143L29.986,5.143z"/>
	<path d="M31.341,3.099c0-0.29-0.006-0.527-0.023-0.759h0.452l0.029,0.463h0.012c0.139-0.266,0.463-0.527,0.927-0.527
		c0.388,0,0.99,0.232,0.99,1.193v1.674h-0.51V3.527c0-0.452-0.168-0.828-0.649-0.828c-0.336,0-0.597,0.238-0.683,0.521
		c-0.023,0.064-0.035,0.151-0.035,0.238v1.685h-0.51L31.341,3.099L31.341,3.099z"/>
	<path d="M34.606,5.143V2.728h-0.394V2.34h0.394V2.207c0-0.394,0.087-0.753,0.324-0.979c0.191-0.185,0.446-0.261,0.683-0.261
		c0.18,0,0.336,0.041,0.434,0.081l-0.07,0.394c-0.075-0.035-0.18-0.064-0.324-0.064c-0.434,0-0.545,0.382-0.545,0.811v0.15h0.678
		v0.388H35.11v2.415H34.606z"/>
	<path d="M38.706,3.718c0,1.037-0.718,1.489-1.396,1.489c-0.759,0-1.344-0.556-1.344-1.442c0-0.938,0.614-1.488,1.39-1.488
		C38.162,2.276,38.706,2.861,38.706,3.718z M36.482,3.748c0,0.614,0.353,1.077,0.851,1.077c0.487,0,0.851-0.457,0.851-1.089
		c0-0.475-0.237-1.077-0.84-1.077S36.482,3.214,36.482,3.748z"/>
	<path d="M39.348,3.214c0-0.33-0.006-0.614-0.023-0.875h0.446l0.017,0.55h0.023c0.128-0.376,0.434-0.614,0.776-0.614
		c0.058,0,0.098,0.006,0.145,0.017v0.481c-0.052-0.012-0.104-0.017-0.174-0.017c-0.359,0-0.614,0.272-0.683,0.654
		c-0.012,0.07-0.023,0.15-0.023,0.238v1.494h-0.504L39.348,3.214L39.348,3.214z"/>
	<path d="M41.265,3.099c0-0.29-0.006-0.527-0.023-0.759h0.446l0.023,0.452h0.017c0.156-0.266,0.417-0.515,0.88-0.515
		c0.382,0,0.672,0.232,0.793,0.562h0.012C43.5,2.682,43.61,2.56,43.726,2.473c0.168-0.128,0.353-0.197,0.62-0.197
		c0.371,0,0.921,0.243,0.921,1.216v1.65h-0.498V3.556c0-0.539-0.197-0.863-0.608-0.863c-0.29,0-0.515,0.214-0.602,0.463
		c-0.023,0.069-0.041,0.162-0.041,0.255v1.732h-0.498v-1.68c0-0.446-0.197-0.77-0.585-0.77c-0.319,0-0.55,0.255-0.631,0.51
		c-0.029,0.075-0.041,0.162-0.041,0.249v1.691h-0.498L41.265,3.099L41.265,3.099z"/>
	<path d="M47.645,5.143L47.605,4.79h-0.017c-0.156,0.22-0.458,0.417-0.857,0.417c-0.567,0-0.857-0.4-0.857-0.805
		c0-0.677,0.602-1.048,1.685-1.043V3.301c0-0.232-0.064-0.649-0.637-0.649c-0.261,0-0.533,0.081-0.73,0.209l-0.116-0.336
		c0.232-0.15,0.567-0.249,0.921-0.249c0.857,0,1.066,0.585,1.066,1.147v1.048c0,0.243,0.012,0.48,0.046,0.672L47.645,5.143
		L47.645,5.143z M47.57,3.712c-0.556-0.012-1.187,0.087-1.187,0.632c0,0.33,0.22,0.486,0.481,0.486c0.365,0,0.597-0.231,0.678-0.469
		c0.018-0.052,0.029-0.11,0.029-0.162L47.57,3.712L47.57,3.712z"/>
	<path d="M49.475,1.535V2.34h0.73v0.388h-0.73V4.24c0,0.348,0.098,0.544,0.382,0.544c0.133,0,0.232-0.017,0.295-0.035l0.023,0.382
		c-0.098,0.04-0.255,0.069-0.452,0.069c-0.238,0-0.429-0.075-0.55-0.214c-0.145-0.15-0.197-0.4-0.197-0.73V2.728h-0.434V2.34h0.434
		V1.668L49.475,1.535z"/>
	<path d="M51.345,1.552c0.006,0.174-0.122,0.313-0.324,0.313c-0.18,0-0.307-0.139-0.307-0.313c0-0.18,0.133-0.319,0.319-0.319
		C51.223,1.234,51.345,1.373,51.345,1.552z M50.777,5.143V2.34h0.51v2.803L50.777,5.143L50.777,5.143z"/>
	<path d="M54.669,3.718c0,1.037-0.718,1.489-1.396,1.489c-0.759,0-1.344-0.556-1.344-1.442c0-0.938,0.614-1.488,1.39-1.488
		C54.124,2.276,54.669,2.861,54.669,3.718z M52.445,3.748c0,0.614,0.353,1.077,0.851,1.077c0.487,0,0.851-0.457,0.851-1.089
		c0-0.475-0.238-1.077-0.84-1.077C52.706,2.658,52.445,3.214,52.445,3.748z"/>
	<path d="M55.311,3.099c0-0.29-0.006-0.527-0.023-0.759h0.452l0.029,0.463h0.012c0.139-0.266,0.463-0.527,0.927-0.527
		c0.388,0,0.99,0.232,0.99,1.193v1.674h-0.51V3.527c0-0.452-0.168-0.828-0.649-0.828c-0.336,0-0.597,0.238-0.683,0.521
		c-0.023,0.064-0.035,0.151-0.035,0.238v1.685h-0.51L55.311,3.099L55.311,3.099z"/>
	<path d="M61.269,5.143L61.228,4.79h-0.017c-0.156,0.22-0.457,0.417-0.857,0.417c-0.567,0-0.857-0.4-0.857-0.805
		c0-0.677,0.602-1.048,1.685-1.043V3.301c0-0.232-0.064-0.649-0.637-0.649c-0.261,0-0.533,0.081-0.73,0.209l-0.116-0.336
		c0.232-0.15,0.568-0.249,0.921-0.249c0.857,0,1.066,0.585,1.066,1.147v1.048c0,0.243,0.012,0.48,0.046,0.672L61.269,5.143
		L61.269,5.143z M61.194,3.712c-0.556-0.012-1.187,0.087-1.187,0.632c0,0.33,0.22,0.486,0.48,0.486c0.365,0,0.597-0.231,0.678-0.469
		c0.017-0.052,0.029-0.11,0.029-0.162V3.712z"/>
	<path d="M62.507,3.099c0-0.29-0.006-0.527-0.023-0.759h0.452l0.029,0.463h0.012c0.139-0.266,0.463-0.527,0.927-0.527
		c0.388,0,0.99,0.232,0.99,1.193v1.674h-0.51V3.527c0-0.452-0.168-0.828-0.649-0.828c-0.336,0-0.597,0.238-0.683,0.521
		c-0.023,0.064-0.035,0.151-0.035,0.238v1.685h-0.51L62.507,3.099L62.507,3.099z"/>
	<path d="M68.142,1.031v3.388c0,0.249,0.006,0.533,0.023,0.724h-0.457l-0.023-0.487h-0.012c-0.156,0.313-0.498,0.55-0.955,0.55
		c-0.678,0-1.199-0.573-1.199-1.425c-0.006-0.933,0.573-1.506,1.257-1.506c0.429,0,0.718,0.202,0.846,0.428h0.012V1.031H68.142z
		 M67.632,3.481c0-0.064-0.006-0.151-0.023-0.214c-0.075-0.324-0.353-0.591-0.735-0.591c-0.527,0-0.84,0.463-0.84,1.083
		c0,0.567,0.278,1.037,0.828,1.037c0.342,0,0.654-0.226,0.747-0.608c0.017-0.069,0.023-0.139,0.023-0.22V3.481z"/>
	<path d="M72.012,5.143l-0.04-0.353h-0.017c-0.157,0.22-0.458,0.417-0.857,0.417c-0.568,0-0.857-0.4-0.857-0.805
		c0-0.677,0.602-1.048,1.685-1.043V3.301c0-0.232-0.064-0.649-0.637-0.649c-0.261,0-0.533,0.081-0.73,0.209l-0.116-0.336
		c0.231-0.15,0.567-0.249,0.921-0.249c0.857,0,1.066,0.585,1.066,1.147v1.048c0,0.243,0.012,0.48,0.046,0.672L72.012,5.143
		L72.012,5.143z M71.937,3.712C71.381,3.701,70.75,3.8,70.75,4.344c0,0.33,0.22,0.486,0.481,0.486c0.365,0,0.597-0.231,0.677-0.469
		c0.018-0.052,0.029-0.11,0.029-0.162L71.937,3.712L71.937,3.712z"/>
	<path d="M75.672,1.031v3.388c0,0.249,0.006,0.533,0.023,0.724h-0.457l-0.023-0.487h-0.012c-0.156,0.313-0.498,0.55-0.955,0.55
		c-0.678,0-1.199-0.573-1.199-1.425c-0.006-0.933,0.573-1.506,1.257-1.506c0.429,0,0.718,0.202,0.846,0.428h0.012V1.031H75.672z
		 M75.162,3.481c0-0.064-0.006-0.151-0.023-0.214c-0.075-0.324-0.353-0.591-0.735-0.591c-0.527,0-0.84,0.463-0.84,1.083
		c0,0.567,0.278,1.037,0.828,1.037c0.342,0,0.654-0.226,0.747-0.608c0.017-0.069,0.023-0.139,0.023-0.22V3.481z"/>
	<path d="M76.713,2.34l0.55,1.575c0.092,0.255,0.168,0.487,0.226,0.718h0.017c0.064-0.232,0.145-0.463,0.238-0.718l0.544-1.575
		h0.533l-1.1,2.803h-0.487L76.169,2.34H76.713z"/>
	<path d="M79.869,1.552c0.006,0.174-0.122,0.313-0.324,0.313c-0.18,0-0.307-0.139-0.307-0.313c0-0.18,0.133-0.319,0.318-0.319
		C79.747,1.234,79.869,1.373,79.869,1.552z M79.301,5.143V2.34h0.51v2.803L79.301,5.143L79.301,5.143z"/>
	<path d="M82.654,5.039c-0.133,0.07-0.429,0.162-0.805,0.162c-0.846,0-1.396-0.573-1.396-1.43c0-0.863,0.591-1.488,1.506-1.488
		c0.301,0,0.568,0.075,0.707,0.145L82.55,2.821c-0.122-0.069-0.313-0.133-0.591-0.133c-0.643,0-0.99,0.475-0.99,1.06
		c0,0.649,0.417,1.048,0.973,1.048c0.29,0,0.481-0.075,0.625-0.139L82.654,5.039z"/>
	<path d="M83.499,3.834c0.012,0.689,0.452,0.973,0.961,0.973c0.365,0,0.585-0.064,0.776-0.145l0.087,0.365
		c-0.18,0.081-0.486,0.174-0.932,0.174c-0.863,0-1.378-0.567-1.378-1.413s0.498-1.512,1.315-1.512c0.915,0,1.158,0.805,1.158,1.32
		c0,0.104-0.012,0.185-0.017,0.238C85.468,3.834,83.499,3.834,83.499,3.834z M84.993,3.469c0.006-0.324-0.133-0.828-0.707-0.828
		c-0.515,0-0.741,0.475-0.782,0.828H84.993z"/>
	<path d="M87.682,2.34l0.55,1.575c0.093,0.255,0.168,0.487,0.226,0.718h0.017c0.064-0.232,0.145-0.463,0.238-0.718l0.545-1.575
		h0.533l-1.1,2.803h-0.487L87.138,2.34C87.138,2.34,87.682,2.34,87.682,2.34z"/>
	<path d="M90.838,1.552c0.006,0.174-0.122,0.313-0.324,0.313c-0.18,0-0.307-0.139-0.307-0.313c0-0.18,0.133-0.319,0.318-0.319
		C90.717,1.234,90.838,1.373,90.838,1.552z M90.271,5.143V2.34h0.51v2.803L90.271,5.143L90.271,5.143z"/>
	<path d="M91.556,4.622c0.15,0.098,0.417,0.202,0.672,0.202c0.371,0,0.545-0.185,0.545-0.417c0-0.243-0.145-0.376-0.521-0.515
		c-0.504-0.18-0.741-0.458-0.741-0.794c0-0.452,0.365-0.822,0.967-0.822c0.284,0,0.533,0.081,0.689,0.174L93.039,2.82
		c-0.11-0.069-0.313-0.162-0.573-0.162c-0.301,0-0.469,0.174-0.469,0.382c0,0.232,0.168,0.336,0.533,0.475
		c0.487,0.185,0.735,0.428,0.735,0.846c0,0.492-0.382,0.84-1.048,0.84c-0.307,0-0.591-0.075-0.787-0.191L91.556,4.622z"/>
	<path d="M94.486,1.552c0.006,0.174-0.122,0.313-0.324,0.313c-0.18,0-0.307-0.139-0.307-0.313c0-0.18,0.133-0.319,0.318-0.319
		C94.364,1.234,94.486,1.373,94.486,1.552z M93.918,5.143V2.34h0.51v2.803L93.918,5.143L93.918,5.143z"/>
	<path d="M95.887,1.535V2.34h0.73v0.388h-0.73V4.24c0,0.348,0.098,0.544,0.382,0.544c0.133,0,0.232-0.017,0.295-0.035l0.023,0.382
		c-0.098,0.04-0.255,0.069-0.452,0.069c-0.238,0-0.428-0.075-0.55-0.214c-0.145-0.15-0.197-0.4-0.197-0.73V2.728h-0.434V2.34h0.434
		V1.668L95.887,1.535z"/>
</g>
</svg>
