<?xml version="1.0" encoding="utf-8"?>
<!-- Generator: Adobe Illustrator 24.0.2, SVG Export Plug-In . SVG Version: 6.00 Build 0)  -->
<svg version="1.1" id="Layer_1" xmlns="http://www.w3.org/2000/svg" xmlns:xlink="http://www.w3.org/1999/xlink" x="0px" y="0px"
	 viewBox="0 0 512 512" style="enable-background:new 0 0 512 512;" xml:space="preserve">
<style type="text/css">
	.st0{fill:#0081CD;}
</style>
<g>
	<path class="st0" d="M448.372,0h-384c-35.3,0-64,28.7-64,64v288c0,35.3,28.7,64,64,64h96v84c0,9.8,11.2,15.5,19.1,9.7l124.9-93.7
		h144c35.3,0,64-28.7,64-64V64C512.372,28.7,483.672,0,448.372,0z M413.253,280.691l-14.742,63.884
		c-1.536,6.634-7.433,11.425-14.374,11.425C226.823,356,99.117,228.54,99.117,70.981c0-6.88,4.73-12.838,11.425-14.374
		l63.884-14.742c6.941-1.597,14.067,2.027,16.892,8.538l29.485,68.798c2.58,6.02,0.86,13.084-4.238,17.199l-37.224,30.468
		c22.114,47.114,60.751,86.304,108.848,108.848l30.468-37.225c4.177-5.098,11.18-6.818,17.199-4.238l68.798,29.485
		C411.226,266.624,414.85,273.75,413.253,280.691z"/>
</g>
</svg>
