<?xml version="1.0" encoding="utf-8"?>
<!-- Generator: Adobe Illustrator 23.0.2, SVG Export Plug-In . SVG Version: 6.00 Build 0)  -->
<svg version="1.1" id="Layer_1" xmlns="http://www.w3.org/2000/svg" xmlns:xlink="http://www.w3.org/1999/xlink" x="0px" y="0px"
	 viewBox="0 0 620 310" enable-background="new 0 0 620 310" xml:space="preserve">
<title>Artboard 2</title>
<g id="hiw2">
	<g id="CloudLarge">
		<path id="cloud_copy" fill="#E6F7FF" d="M212.1,168.8h70.3c0,0,2-14.3-15.6-14.3c0,0-2.9-14.3-15.6-14.3
			c-23.7,0-21.5,15.6-21.5,15.6S212.1,157.8,212.1,168.8z"/>
		<path id="cloud" fill="#FFFFFF" d="M209.3,168.8h70.3c0,0,2-14.3-15.6-14.3c0,0-2.9-14.3-15.6-14.3c-23.7,0-21.5,15.6-21.5,15.6
			S209.3,157.8,209.3,168.8z"/>
	</g>
	<g id="SmallCloudDraw">
		<path id="cloud_copy-2" fill="#E6F7FF" d="M361.4,141.1c0,0,1.8-12.1-16.8-12.1c-10,0-12.2,11.2-12.2,11.2
			c-13.8,0-12.2,11.2-12.2,11.2h54.9C375.1,142.7,361.4,141.1,361.4,141.1z"/>
		<path id="cloud-2" fill="#FFFFFF" d="M363.6,141.1c0,0,1.8-12.1-16.8-12.1c-10,0-12.2,11.2-12.2,11.2c-13.8,0-12.2,11.2-12.2,11.2
			h54.9C377.3,142.7,363.6,141.1,363.6,141.1z"/>
	</g>
	<g id="BushRight">
		<path id="Path_284" fill="#B1D365" d="M550,120.6c3.3-0.9,5.2-4.2,4.3-7.5c-0.7-2.5-2.8-4.3-5.3-4.5c3.4-5.4,1.7-12.4-3.6-15.8
			c-2.7-1.7-6.1-2.2-9.2-1.3c-0.5,0.2-1.1,0.3-1.6,0.6c0.4-8.7-6.3-16-14.9-16.4c0,0,0,0-0.1,0c-3.8-0.2-7.5,1.1-10.5,3.4
			c-12.2-9-29.4-6.3-38.3,5.9c-5,6.8-6.6,15.5-4.3,23.7c0.1,0.4,0.3,0.8,0.4,1.2h-0.1l9.3,32.8l0,0c5.7,20,26.5,31.7,46.5,26
			c20-5.7,31.7-26.5,26-46.5c-0.1-0.4-0.3-0.9-0.4-1.3C548.8,120.8,549.4,120.7,550,120.6z"/>
		<path id="Path_285" fill="#B1D365" d="M340.4,116.4l-1.3,0.5c-0.1-0.6-0.2-1.2-0.4-1.7c-1.2-3.2-4.7-4.8-7.9-3.6
			c-2.4,0.9-3.9,3.1-4,5.7c-5.6-2.9-12.5-0.6-15.4,5c-1.5,2.9-1.7,6.3-0.5,9.3c0.2,0.5,0.4,1,0.7,1.5c-8.7,0.4-15.4,7.8-15,16.5
			c0.2,3.8,1.7,7.4,4.3,10.1c-7.8,13-3.5,29.9,9.5,37.6c7.2,4.3,16.1,5.1,23.9,2.1c0.4-0.2,0.8-0.3,1.2-0.5v0.1l31.8-12.3l0,0l0,0
			l0,0c19.6-7.2,29.6-28.8,22.4-48.4S361,108.8,341.4,116C341,116.1,340.7,116.3,340.4,116.4L340.4,116.4z"/>
	</g>
	<g id="BushLeft">
		<path id="Path_286" fill="#B1D365" d="M189.2,75h-1.8c1.5-4.2-0.7-8.8-4.9-10.2c-4.2-1.5-8.8,0.7-10.2,4.9l0,0
			c-5.6-6.2-15.1-6.7-21.3-1.1c-3.2,2.9-5,6.9-5,11.2c0,0.7,0.1,1.5,0.2,2.2c-10.8-3.6-22.5,2.3-26.1,13.1c-0.7,2.1-1,4.3-1,6.5
			c0,0.9,0.1,1.8,0.2,2.7c-2.3-3.8-7.3-5-11.1-2.6c-1.4,0.9-2.6,2.2-3.2,3.8c-5.6-6.2-15.1-6.6-21.3-1c-3.2,2.9-4.9,6.9-4.9,11.2
			c0,0.7,0.1,1.5,0.2,2.2c-10.8-3.6-22.5,2.3-26.1,13.1c-0.7,2.1-1,4.3-1,6.5c0,2.7,0.5,5.5,1.6,8c-15.7,12.2-18.4,34.9-6.2,50.5
			c6.8,8.7,17.3,13.8,28.3,13.8h1.7v0.1h44.7c22,0,41.4-14.6,47.5-35.8h19.7c27.3,0.5,49.9-21.2,50.5-48.5S218.5,75.5,191.2,75
			C190.5,75,189.9,75,189.2,75z M120.6,109.5l-0.3,0.3c0.1-0.3,0.1-0.6,0.1-0.9C120.5,109.1,120.6,109.3,120.6,109.5L120.6,109.5z"
			/>
	</g>
	<g id="SmallTree">
		<rect id="Rectangle_320" x="301.4" y="180.4" fill="#DA7A27" width="3" height="24.4"/>
		<path id="Path_287" fill="#7F8C38" d="M291.4,168.4L291.4,168.4c-2.8,7-0.9,14.3,5.1,20.5l0,0c3.5,3.5,9.1,3.6,12.7,0.1l0.1-0.1
			l0,0c6-6.2,7.9-13.5,5.1-20.5l0,0c-2.5-6.4-9.7-9.5-16-7C295.2,162.7,292.6,165.2,291.4,168.4L291.4,168.4z"/>
		<g id="Group_469">
			<path id="Path_288" fill="#7FB141" d="M314.5,168.4c-1.8-4.8-6.4-7.9-11.5-7.9v31c2.4,0,4.7-1,6.4-2.7
				C315.4,182.8,317.2,175.4,314.5,168.4z"/>
		</g>
	</g>
	<g id="LargeTree">
		<rect id="Rectangle_321" x="566.2" y="178.4" fill="#DA7A27" width="3" height="24.4"/>
		<path id="Path_289" fill="#7F8C38" d="M566,110.4l-9.8,41.3c-2.8,11.6-0.9,23.8,5.1,34l0,0c2.1,3.5,6.7,4.7,10.2,2.6
			c1.1-0.6,2-1.5,2.6-2.6l0,0c6.1-10.2,7.9-22.4,5.2-34l-9.8-41.3c-0.2-1-1.2-1.6-2.1-1.4C566.7,109.2,566.1,109.7,566,110.4
			L566,110.4z"/>
		<g id="Group_470">
			<path id="Path_290" fill="#7FB141" d="M574.1,185.7c6.1-10.2,7.9-22.4,5.2-34l-9.8-41.3c-0.2-0.8-0.9-1.4-1.8-1.4v80.3
				C570.3,189.4,572.8,188,574.1,185.7z"/>
		</g>
	</g>
	<g id="HouseRight">
		<rect id="Rectangle_322" x="535.6" y="201.9" fill="#7F8C38" width="42.1" height="22.7"/>
		<rect id="Rectangle_323" x="319.8" y="201.8" fill="#7F8C38" width="223.2" height="22.8"/>
		<rect id="Rectangle_324" x="319.8" y="128.6" fill="#BB574D" width="54.3" height="75.2"/>
		<rect id="Rectangle_325" x="468.6" y="67.6" fill="#BB574D" width="13.7" height="25.4"/>
		<path id="Path_291" fill="#586888" d="M454,65.7h-75.8l-68.5,63.4h214.6L454,65.7z"/>
		<rect id="Rectangle_326" x="468.6" y="73.3" fill="#F27450" width="4.7" height="2.8"/>
		<rect id="Rectangle_327" x="477.6" y="77.6" fill="#F27450" width="4.7" height="2.8"/>
		<rect id="Rectangle_328" x="476.1" y="82.1" fill="#F27450" width="4.7" height="2.8"/>
		<rect id="Rectangle_329" x="467.5" y="67.6" fill="#A84743" width="15.9" height="3.1"/>
		<rect id="Rectangle_330" x="393.4" y="152.6" fill="#BB574D" width="149.6" height="51.6"/>
		<rect id="Rectangle_331" x="394.7" y="204.1" fill="#9C938A" width="148.4" height="15.2"/>
		<rect id="Rectangle_332" x="400.9" y="159.6" fill="#A84743" width="35.6" height="23.2"/>
		<rect id="Rectangle_333" x="499.9" y="159.6" fill="#A84743" width="35.6" height="23.2"/>
		<rect id="Rectangle_334" x="405.9" y="165" fill="#065C6F" width="25.6" height="12.9"/>
		<rect id="Rectangle_335" x="410.1" y="172.6" fill="#168690" width="18" height="5.3"/>
		<rect id="Rectangle_336" x="452.1" y="158.8" fill="#A84743" width="32.1" height="45.5"/>
		<rect id="Rectangle_337" x="397.5" y="158.8" fill="#A84743" width="143.2" height="3.8"/>
		<rect id="Rectangle_338" x="457" y="162.6" fill="#A3886B" width="22.5" height="41.7"/>
		<path id="Path_292" fill="#455573" d="M360.6,129.1l0.1,25.2H548l-28-25.2H360.6z"/>
		<rect id="Rectangle_339" x="505" y="165" fill="#065C6F" width="25.6" height="12.9"/>
		<rect id="Rectangle_340" x="405.9" y="165" fill="none" width="25.6" height="12.9"/>
		<rect id="Rectangle_341" x="509.2" y="172.6" fill="#168690" width="18" height="5.3"/>
		<g id="Group_471">
			<path id="Path_293" fill="#836A4E" d="M475.6,166.4v33.9h-14.7v-33.9H475.6 M479.5,162.6H457v41.7h22.5L479.5,162.6L479.5,162.6z
				"/>
		</g>
		<g id="Group_472">
			<path id="Path_294" fill="#836A4E" d="M475.6,178.8v9.2h-14.7v-9.1L475.6,178.8 M479.5,175H457v17h22.5L479.5,175L479.5,175z"/>
		</g>
		<rect id="Rectangle_342" x="309.7" y="129.1" fill="#3F5068" width="214.4" height="3.9"/>
		<rect id="Rectangle_343" x="339.1" y="146.5" fill="#F27450" width="54.3" height="73.7"/>
		<rect id="Rectangle_344" x="348.7" y="160.9" fill="#BB574D" width="35" height="46.9"/>
		<rect id="Rectangle_345" x="354.2" y="166.5" fill="#065C6F" width="24.2" height="35.7"/>
		<path id="Path_295" fill="#455573" d="M366.3,103.2l-44.1,46.2h88.1L366.3,103.2z"/>
		<path id="Path_296" fill="#F27450" d="M366.3,108.8l-38.7,40.6h11.5l28,11.6l26.3-11.6H405L366.3,108.8z"/>
		<rect id="Rectangle_346" x="360.3" y="182.7" fill="#5E9F9C" width="13.2" height="19.5"/>
		<rect id="Rectangle_347" x="339.1" y="153.2" fill="#BB574D" width="6" height="3.5"/>
		<rect id="Rectangle_348" x="351.5" y="153.2" fill="#BB574D" width="6" height="3.5"/>
		<rect id="Rectangle_349" x="344.3" y="160.9" fill="#BB574D" width="6" height="3.5"/>
		<rect id="Rectangle_350" x="387.4" y="206.1" fill="#BB574D" width="6" height="3.5"/>
		<rect id="Rectangle_351" x="380.1" y="213.8" fill="#BB574D" width="6" height="3.5"/>
		<rect id="Rectangle_352" x="339.1" y="183.4" fill="#BB574D" width="6" height="3.5"/>
		<rect id="Rectangle_353" x="344.3" y="191.1" fill="#BB574D" width="6" height="3.5"/>
		<rect id="Rectangle_354" x="351.3" y="126.6" fill="#BB574D" width="30" height="19.3"/>
		<rect id="Rectangle_355" x="357.2" y="131.7" fill="#065C6F" width="18.1" height="9.1"/>
		<rect id="Rectangle_356" x="361.1" y="135.3" fill="#5E9F9C" width="11.3" height="5.5"/>
		<path id="Path_297" fill="#837E79" d="M543.1,204.1H394.7v8.6L543.1,204.1z"/>
		<g id="Group_473">
			<rect id="Rectangle_357" x="439.3" y="155.2" fill="#E2E1DD" width="4.7" height="65"/>
			<rect id="Rectangle_358" x="421.6" y="185.4" fill="#E2E1DD" width="3.4" height="34.8"/>
			<rect id="Rectangle_359" x="430.8" y="185.4" fill="#E2E1DD" width="3.4" height="34.8"/>
			<rect id="Rectangle_360" x="412.4" y="185.4" fill="#E2E1DD" width="3.4" height="34.8"/>
			<rect id="Rectangle_361" x="403.2" y="185.4" fill="#E2E1DD" width="3.4" height="34.8"/>
			<rect id="Rectangle_362" x="394.4" y="184.8" fill="#E2E1DD" width="47.3" height="4.6"/>
			<rect id="Rectangle_363" x="394.4" y="215.5" fill="#E2E1DD" width="47.3" height="4.6"/>
			<rect id="Rectangle_364" x="393.4" y="155.2" fill="#E2E1DD" width="4.7" height="65"/>
		</g>
		<g id="Group_474">
			<rect id="Rectangle_365" x="538.4" y="155.2" fill="#E2E1DD" width="4.7" height="65"/>
			<rect id="Rectangle_366" x="520.7" y="185.4" fill="#E2E1DD" width="3.4" height="34.8"/>
			<rect id="Rectangle_367" x="529.9" y="185.4" fill="#E2E1DD" width="3.4" height="34.8"/>
			<rect id="Rectangle_368" x="511.5" y="185.4" fill="#E2E1DD" width="3.4" height="34.8"/>
			<rect id="Rectangle_369" x="502.3" y="185.4" fill="#E2E1DD" width="3.4" height="34.8"/>
			<rect id="Rectangle_370" x="493.5" y="184.8" fill="#E2E1DD" width="47.3" height="4.6"/>
			<rect id="Rectangle_371" x="493.5" y="215.5" fill="#E2E1DD" width="47.3" height="4.6"/>
			<rect id="Rectangle_372" x="492.5" y="155.2" fill="#E2E1DD" width="4.7" height="65"/>
		</g>
		<rect id="Rectangle_373" x="441.6" y="214.8" fill="#E2E1DD" width="51.8" height="5.4"/>
		<rect id="Rectangle_374" x="393.4" y="154.4" fill="#586888" width="154.6" height="4.4"/>
	</g>
	<g id="HouseLeft">
		<rect id="Rectangle_375" x="78.5" y="203.7" fill="#7F8C38" width="260.5" height="20.8"/>
		<rect id="Rectangle_376" x="94.4" y="138" fill="#CB7E35" width="188.8" height="65.8"/>
		<rect id="Rectangle_377" x="190.8" y="138" fill="#F69554" width="92.3" height="65.8"/>
		<rect id="Rectangle_378" x="150.1" y="152" fill="#BB6A29" width="32.7" height="49.9"/>
		<g id="Group_476">
			<rect id="Rectangle_379" x="155.2" y="157.2" fill="#A3886B" width="22.5" height="39.7"/>
			<g id="Group_475">
				<path id="Path_298" fill="#836A4E" d="M179.7,198.8h-26.4v-43.6h26.4V198.8z M157.2,194.9h18.6v-35.8h-18.6V194.9z"/>
			</g>
		</g>
		<rect id="Rectangle_380" x="97" y="138.1" fill="#BB6A29" width="93.7" height="5.7"/>
		<rect id="Rectangle_381" x="105.7" y="149.5" fill="#065C6F" width="25.6" height="12.9"/>
		<rect id="Rectangle_382" x="109.9" y="157" fill="#5E9F9C" width="18" height="5.3"/>
		<g id="Group_477">
			<rect id="Rectangle_383" x="222.4" y="192.6" fill="#CB7E35" width="6" height="3.5"/>
			<rect id="Rectangle_384" x="228.6" y="200.3" fill="#CB7E35" width="6" height="3.5"/>
			<rect id="Rectangle_385" x="247" y="192.6" fill="#CB7E35" width="6" height="3.5"/>
			<rect id="Rectangle_386" x="254.7" y="200.3" fill="#CB7E35" width="6" height="3.5"/>
			<rect id="Rectangle_387" x="277.2" y="151.7" fill="#CB7E35" width="6" height="3.5"/>
			<rect id="Rectangle_388" x="271" y="159.4" fill="#CB7E35" width="6" height="3.5"/>
		</g>
		<g id="Group_481">
			<rect id="Rectangle_389" x="210.3" y="150.7" fill="#065C6F" width="52.6" height="35.1"/>
			<rect id="Rectangle_390" x="217.6" y="169.8" fill="#5E9F9C" width="38" height="16.1"/>
			<g id="Group_478">
				<rect id="Rectangle_391" x="208.6" y="160.9" fill="#F69554" width="57.6" height="3.9"/>
			</g>
			<g id="Group_479">
				<rect id="Rectangle_392" x="225.2" y="149.1" fill="#F69554" width="3.9" height="37.6"/>
			</g>
			<g id="Group_480">
				<rect id="Rectangle_393" x="244.3" y="149.1" fill="#F69554" width="3.9" height="37.6"/>
			</g>
		</g>
		<rect id="Rectangle_394" x="139.3" y="138" fill="#E2E1DD" width="4.7" height="65.8"/>
		<rect id="Rectangle_395" x="121.6" y="178.9" fill="#E2E1DD" width="3.4" height="24.8"/>
		<rect id="Rectangle_396" x="130.8" y="178.9" fill="#E2E1DD" width="3.4" height="24.8"/>
		<rect id="Rectangle_397" x="112.4" y="178.9" fill="#E2E1DD" width="3.4" height="24.8"/>
		<rect id="Rectangle_398" x="103.3" y="178.9" fill="#E2E1DD" width="3.4" height="24.8"/>
		<rect id="Rectangle_399" x="94.4" y="177" fill="#E2E1DD" width="47.3" height="4.7"/>
		<rect id="Rectangle_400" x="94.4" y="199.1" fill="#E2E1DD" width="47.3" height="4.7"/>
		<rect id="Rectangle_401" x="139.3" y="198.3" fill="#E2E1DD" width="53.8" height="5.4"/>
		<rect id="Rectangle_402" x="93.4" y="138" fill="#E2E1DD" width="4.7" height="65.8"/>
		<rect id="Rectangle_403" x="188.5" y="138" fill="#E2E1DD" width="4.7" height="65.8"/>
		<path id="Path_299" fill="#5D6161" d="M194.7,59.8L94.9,138h199.6L194.7,59.8z"/>
		<path id="Path_300" fill="#707675" d="M143.7,93.6L87,138h113.4L143.7,93.6z"/>
		<rect id="Rectangle_404" x="87" y="138" fill="#5D6161" width="113.5" height="5.2"/>
		<rect id="Rectangle_405" x="200.4" y="138" fill="#4A4C4C" width="94.1" height="5.2"/>
	</g>
	<g id="Cross">
		<circle id="Ellipse_12" fill="#FFFFFF" cx="442.5" cy="73.8" r="40.6"/>
		<path id="Path_301" fill="#AD0000" d="M462,85.2c0,0.8-0.3,1.6-0.9,2.2l-4.4,4.4c-0.6,0.6-1.4,0.9-2.2,0.9c-0.8,0-1.6-0.3-2.2-0.9
			l-9.5-9.6l-9.5,9.6c-0.6,0.6-1.4,0.9-2.2,0.9c-0.8,0-1.6-0.3-2.2-0.9l-4.4-4.4c-1.2-1.2-1.2-3.2,0-4.4l9.5-9.6l-9.6-9.5
			c-0.6-0.6-0.9-1.4-0.9-2.2c0-0.8,0.3-1.6,0.9-2.2l4.4-4.4c0.6-0.6,1.4-0.9,2.2-0.9c0.8,0,1.6,0.3,2.2,0.9l9.5,9.5l9.5-9.5
			c0.6-0.6,1.4-0.9,2.2-0.9c0.8,0,1.6,0.3,2.2,0.9l4.4,4.4c0.6,0.6,0.9,1.4,0.9,2.2c0,0.8-0.3,1.6-0.9,2.2l-9.5,9.6l9.5,9.6
			C461.7,83.7,462,84.4,462,85.2z"/>
	</g>
	<g id="TicketDraw">
		<g id="Group_465">
			<path id="Path_264" fill="none" d="M218.7,245.4h-88.3h90.8h45.3l0,0H218.7z"/>
			<rect id="Rectangle_309" x="123.8" y="232.7" fill="none" width="6.3" height="0"/>
			<path id="Path_267" fill="none" d="M123.6,213.7h-12.8l0,0H123.6L123.6,213.7z"/>
			<path id="Path_268" fill="#FFE076" d="M130,213.7L130,213.7l91.1,0.1v-0.1H267c2.6-3,5.8-5.2,9.4-6.7V195
				c-0.1-6.7-5.4-12-12.1-12.1L115,182.8c-6.6,0.1-12,5.4-12,12.1v12.8c3,1.5,5.7,3.5,7.9,6h12.8L130,213.7L130,213.7z M123.3,188.4
				h6.3v6.4h-6.3V188.4z M123.5,201h6.3v6.4h-6.3V201z"/>
			<path id="Path_269" fill="#FFE076" d="M266.5,245.5h-45.3h-90.8h-19c-2.3,2.8-5.2,5.1-8.4,6.7v12.7c0.1,6.6,5.4,12,12.1,12
				l149.4-0.1c6.7-0.1,12-5.4,12.1-12.1v-11.9C272.6,251.2,269.1,248.7,266.5,245.5z M124.2,251.8h6.4v6.3h-6.3L124.2,251.8z
				 M130.7,270.8h-6.3v-6.4h6.3V270.8z"/>
			<path id="Path_270" fill="#DCC368" d="M124,239.1h6.4v6.4h88.3v-31.7H130v6.3h-6.3v-6.3h-12.8c7.8,9,8,22.4,0.5,31.7H124V239.1z
				 M123.8,232.7v-6.4h6.4v6.4L123.8,232.7z"/>
			<path id="Path_271" fill="#C9B05F" d="M267,213.7h-45.9v0.1L267,213.7L267,213.7z"/>
			<path id="Path_272" fill="#CEB36A" d="M266.9,213.8h-48.3v31.7h47.8C258.9,236.1,259.1,222.8,266.9,213.8z"/>
			<path id="Path_273" fill="none" d="M130.3,239.1H124v6.4h6.4L130.3,239.1z"/>
			<rect id="Rectangle_312" x="123.8" y="226.4" fill="none" width="6.3" height="6.4"/>
			<rect id="Rectangle_313" x="123.6" y="213.8" fill="none" width="6.3" height="6.3"/>
			<rect id="Rectangle_314" x="123.4" y="201" fill="none" width="6.4" height="6.4"/>
			<rect id="Rectangle_315" x="123.6" y="213.7" fill="none" width="6.3" height="0.1"/>
			<rect id="Rectangle_316" x="123.2" y="188.4" fill="none" width="6.3" height="6.4"/>
			<rect id="Rectangle_317" x="124.4" y="264.5" fill="none" width="6.3" height="6.4"/>
			<rect id="Rectangle_319" x="124.2" y="251.8" fill="none" width="6.3" height="6.3"/>
		</g>
		<g id="Group_466">
			<path id="Path_274" d="M142.3,234.3l-0.6,3.5h-3.9l3.7-17.6h4.9l3.2,17.6h-3.9l-0.6-3.5H142.3z M144.9,231.2l-0.4-3.3
				c-0.1-1-0.4-2.9-0.5-4h-0.1c-0.2,1.1-0.4,3.1-0.6,4l-0.5,3.3H144.9z"/>
			<path id="Path_275" d="M154.3,224.5L154.3,224.5l-2.9,1.4l-0.6-3.2l4-2h3.6v17h-4L154.3,224.5z"/>
			<path id="Path_276" d="M161.6,237.8V235l1.8-2.2c2.3-2.8,3.8-4.8,3.8-6.9c0-1-0.8-1.9-1.8-2h-0.3c-0.9,0-1.8,0.3-2.6,0.8
				l-0.6-3.1c1.2-0.7,2.6-1,4-1c4.1,0,5.3,2.7,5.3,5.1c0,3.2-2,5.5-3.9,7.5l-1,1v0.1h5v3.5L161.6,237.8L161.6,237.8z"/>
			<path id="Path_277" d="M177.4,234.1c0.8,0.4,1.7,0.6,2.6,0.6c1.6,0,2.4-0.9,2.4-2.1c0-1.8-1.5-2.3-3.1-2.3h-0.4v-2.9h0.3
				c1.3,0,2.8-0.4,2.8-1.8c0-0.9-0.7-1.7-1.6-1.7c0,0,0,0,0,0h-0.3c-0.8,0-1.5,0.2-2.2,0.6l-0.4-3c1.1-0.6,2.4-0.9,3.7-0.9
				c3.2,0,4.8,2,4.8,4.2c0,1.6-0.9,3.1-2.4,3.7v0.1c1.8,0.6,2.9,2.4,2.9,4.3c0,2.5-2.1,5.2-6,5.2c-1.2,0-2.4-0.2-3.5-0.7
				L177.4,234.1z"/>
			<path id="Path_278" d="M189.1,220.4c1.4-0.3,2.9-0.4,4.3-0.3c1.7-0.1,3.3,0.3,4.7,1.3c1.8,1.6,1.9,4.3,0.3,6.1c0,0,0,0,0,0
				c-0.4,0.4-0.8,0.8-1.3,1v0.1c1.8,0.5,3.1,2.2,3.1,4.1c0.1,1.3-0.4,2.5-1.3,3.4c-1.1,1.1-2.9,1.9-6.3,1.9c-1.1,0-2.3-0.1-3.4-0.2
				L189.1,220.4L189.1,220.4z M193.1,227.3h0.6c1.1-0.1,1.9-1,1.8-2.1v-0.1c0-1.2-0.5-2.1-1.6-2.1c-0.3,0-0.6,0-0.9,0.1L193.1,227.3
				z M193.1,234.8c0.2,0,0.4,0.1,0.6,0.1c1.3-0.1,2.2-1.2,2.1-2.4c-0.1-1.2-1-2.1-2.1-2.2h-0.7L193.1,234.8z"/>
			<path id="Path_279" d="M211,237.5c-0.9,0.3-1.8,0.4-2.7,0.4c-5,0-7-4.1-7-8.7c0-6.5,3.8-9.2,7.5-9.2c0.8,0,1.7,0.1,2.5,0.4
				l-0.6,3.4c-0.5-0.2-1-0.4-1.5-0.3c-2,0-3.5,1.6-3.5,5.5c0,3.7,1.4,5.3,3.5,5.3c0.5,0,1-0.1,1.5-0.2L211,237.5z"/>
			<path id="Path_280" d="M228.2,224.5L228.2,224.5l-2.9,1.4l-0.6-3.2l4.1-2h3.6v17h-4L228.2,224.5z"/>
			<path id="Path_281" d="M235.5,237.8V235l1.8-2.2c2.3-2.8,3.8-4.8,3.8-6.9c0-1-0.8-1.9-1.8-2H239c-0.9,0-1.8,0.3-2.6,0.8l-0.6-3.1
				c1.2-0.7,2.6-1,4-1c4.1,0,5.3,2.7,5.3,5.1c0,3.2-2,5.5-3.9,7.5l-0.9,1v0.1h5v3.5L235.5,237.8L235.5,237.8z"/>
			<path id="Path_282" d="M247.4,234.1c0.8,0.4,1.7,0.6,2.6,0.6c1.6,0,2.4-0.9,2.4-2.1c0-1.8-1.5-2.3-3.1-2.3h-0.4v-2.9h0.3
				c1.3,0,2.8-0.4,2.8-1.8c0-0.9-0.7-1.7-1.6-1.7c0,0,0,0,0,0h-0.3c-0.8,0-1.5,0.2-2.2,0.6l-0.4-3c1.1-0.6,2.4-0.9,3.7-0.9
				c3.2,0,4.8,2,4.8,4.2c0,1.6-0.9,3.1-2.4,3.7v0.1c1.8,0.6,2.9,2.4,2.9,4.3c0,2.5-2.1,5.2-6,5.2c-1.2,0-2.4-0.2-3.5-0.7
				L247.4,234.1z"/>
		</g>
		<g id="Group_468">
			<g id="Group_467">
				<path id="Path_283" fill="#706C5E" d="M219.5,226.5v2.7h2.6v1.4h-2.6v2.7h-1.4v-2.7h-2.6v-1.4h2.6v-2.7H219.5z"/>
			</g>
		</g>
	</g>
	<g id="Tick">
		<circle id="Ellipse_13" fill="#FFFFFF" cx="191.5" cy="73.8" r="40.6"/>
		<path id="Path_302" fill="#00B219" d="M217.9,61c0,0.9-0.3,1.7-0.9,2.3l-28.8,28.8c-1.3,1.2-3.3,1.2-4.6,0l-16.7-16.7
			c-1.2-1.3-1.2-3.3,0-4.6l4.6-4.6c1.3-1.2,3.3-1.2,4.6,0l9.8,9.9l22-22c1.3-1.2,3.3-1.2,4.6,0l4.6,4.5
			C217.6,59.3,217.9,60.1,217.9,61L217.9,61z"/>
	</g>
</g>
</svg>
