<?xml version="1.0" encoding="utf-8"?>
<!-- Generator: Adobe Illustrator 23.0.2, SVG Export Plug-In . SVG Version: 6.00 Build 0)  -->
<svg version="1.1" id="Layer_1" xmlns="http://www.w3.org/2000/svg" xmlns:xlink="http://www.w3.org/1999/xlink" x="0px" y="0px"
	 viewBox="0 0 620 310" enable-background="new 0 0 620 310" xml:space="preserve">
<title>Artboard 1</title>
<g id="Tree">
	<rect id="Rectangle_406" x="36.6" y="201.6" fill="#DA7A27" width="3.2" height="26.1"/>
	<path id="Path_303" fill="#7F8C38" d="M50.6,188.7L50.6,188.7c2.9,7.5,1,15.3-5.5,21.9l0,0c-3.7,3.8-9.8,3.9-13.6,0.1c0,0,0,0,0,0
		l-0.1-0.1l0,0c-6.5-6.6-8.5-14.5-5.5-21.9l0,0c2.7-6.8,10.4-10.2,17.2-7.5C46.5,182.6,49.2,185.3,50.6,188.7z"/>
	<g id="Group_482">
		<path id="Path_304" fill="#7FB141" d="M25.8,188.7c2-5.1,6.9-8.5,12.4-8.4v33.2c-2.6,0-5.1-1-6.9-2.9
			C24.9,204,22.9,196.2,25.8,188.7z"/>
	</g>
</g>
<g id="LargeCloud">
	<path id="cloud_copy" fill="#E6F7FF" d="M116.8,194.1h75.3c0,0,2.2-15.3-16.7-15.3c0,0-3.1-15.4-16.7-15.4c-25.4,0-23,16.7-23,16.7
		S116.8,182.3,116.8,194.1z"/>
	<path id="cloud" fill="#FFFFFF" d="M113.8,194.1h75.3c0,0,2.2-15.3-16.7-15.3c0,0-3.1-15.4-16.7-15.4c-25.4,0-23,16.7-23,16.7
		S113.8,182.3,113.8,194.1z"/>
</g>
<g id="SmallCloud">
	<path id="cloud_copy-2" fill="#E6F7FF" d="M240.1,202.6c0,0,1.9-13.1-18-13.1c-10.7,0-13.1,12-13.1,12c-14.8,0-13.1,12-13.1,12
		h58.8C254.8,204.2,240.1,202.6,240.1,202.6z"/>
	<path id="cloud-2" fill="#FFFFFF" d="M242.5,202.6c0,0,1.9-13.1-18-13.1c-10.7,0-13.1,12-13.1,12c-14.8,0-13.1,12-13.1,12h58.8
		C257.2,204.2,242.5,202.6,242.5,202.6z"/>
</g>
<path id="Bush" fill="#B1D365" d="M305.5,163.8c1.1-2.7,1.7-5.6,1.7-8.5c0-12.2-9.9-22.1-22.1-22.1c0,0,0,0,0,0l0,0
	c-2.4,0-4.7,0.4-6.9,1.1c0.1-0.8,0.2-1.6,0.2-2.3c0-8.9-7.2-16.1-16.1-16.1c-4.6,0-8.9,1.9-12,5.4c-1.8-4.4-6.8-6.5-11.2-4.8
	c-1.7,0.7-3.1,1.9-4.1,3.5c0.1-1,0.2-1.9,0.2-2.9c0-12.2-9.9-22.1-22.1-22.1c0,0,0,0,0,0l0,0c-2.3,0-4.7,0.4-6.9,1.1
	c0.1-0.8,0.2-1.6,0.2-2.3c0-8.9-7.2-16.1-16.1-16.1c-4.6,0-8.9,1.9-12,5.3c-1.8-4.4-6.8-6.5-11.2-4.7c-3.2,1.3-5.3,4.5-5.3,8
	c0,0.8,0.1,1.6,0.4,2.4c-0.6,0-1.3,0-1.9,0c-29.3,0-53,23.7-53,53s23.7,53,53,53h21.1c8.1,28.1,37.4,44.4,65.6,36.3
	c4.4-1.3,8.6-3.1,12.5-5.4c17.3,12.5,41.4,8.6,53.9-8.6C325.2,200.1,321.9,176.6,305.5,163.8L305.5,163.8z M233.8,125.8
	c-0.1-0.1-0.2-0.2-0.3-0.3c0.1-0.2,0.1-0.4,0.2-0.6C233.7,125.3,233.7,125.6,233.8,125.8L233.8,125.8z"/>
<g id="Ticket">
	<g id="Ticket-2">
		<g id="Group_483">
			<path id="Path_305" fill="none" d="M535.2,193.8h-92.1h94.6h47.3l0,0H535.2z"/>
			<rect id="Rectangle_407" x="436.4" y="180.2" fill="none" width="6.6" height="0"/>
			<path id="Path_308" fill="none" d="M436.1,159.8h-13.4l0,0H436.1L436.1,159.8z"/>
			<path id="Path_309" fill="#FFE076" d="M585.1,193.9h-47.3h-94.6h-19.9c-2.4,3-5.3,5.4-8.8,7.1v13.6c0,3.4,1.3,6.7,3.7,9.1
				c2.3,2.5,5.5,3.9,8.9,3.8l155.7-0.1c3.4,0,6.6-1.4,8.9-3.8c2.4-2.4,3.8-5.7,3.7-9.1v-12.8C591.4,200,587.8,197.3,585.1,193.9z
				 M436.8,200.6h6.6v6.8h-6.6V200.6z M443.6,221H437v-6.8h6.6L443.6,221z"/>
			<path id="Path_310" fill="#DCC368" d="M436.5,187h6.6v6.8h92.3v-34h-92.8v6.8h-6.6v-6.8h-13.4c8.2,9.8,8.4,24,0.5,34h13.2
				L436.5,187z M436.3,180.2v-6.8h6.7v6.9L436.3,180.2L436.3,180.2z"/>
			<path id="Path_311" fill="#FFE076" d="M595.4,139.7c0-3.4-1.3-6.7-3.7-9.1c-2.3-2.5-5.5-3.9-8.9-3.8l-155.6-0.1
				c-3.4,0-6.6,1.4-8.9,3.8c-2.4,2.4-3.8,5.7-3.7,9.1l-0.1,13.8c3.1,1.6,5.9,3.8,8.2,6.4h13.4h6.6v0.1h95v-0.1l0,0v0.1h47.8l0.1-0.1
				c2.6-3.1,6-5.6,9.8-7.2L595.4,139.7z M435.7,132.6h6.6v6.8h-6.6V132.6z M442.6,153h-6.6v-6.8h6.6V153z"/>
			<path id="Path_312" fill="#CEB36A" d="M585.6,159.8h-50.2v34h49.7c-3.7-4.7-5.8-10.6-5.7-16.7
				C579.3,170.8,581.5,164.7,585.6,159.8z"/>
			<path id="Path_313" fill="none" d="M443.2,187h-6.6v6.8h6.6V187z"/>
			<rect id="Rectangle_410" x="436.4" y="173.4" fill="none" width="6.6" height="6.8"/>
			<rect id="Rectangle_411" x="436.1" y="159.8" fill="none" width="6.6" height="6.8"/>
			<rect id="Rectangle_412" x="435.9" y="146.2" fill="none" width="6.6" height="6.8"/>
			<rect id="Rectangle_413" x="436.1" y="159.8" fill="none" width="6.6" height="0.1"/>
			<rect id="Rectangle_414" x="435.7" y="132.6" fill="none" width="6.6" height="6.8"/>
			<rect id="Rectangle_415" x="436.9" y="214.2" fill="none" width="6.6" height="6.8"/>
			<rect id="Rectangle_417" x="436.7" y="200.6" fill="none" width="6.6" height="6.8"/>
		</g>
		<g id="Group_484">
			<path id="Path_314" d="M455.6,181.9l-0.6,3.7h-4.1l3.9-18.9h5.2l3.4,18.9h-4.1l-0.6-3.7H455.6z M458.3,178.5l-0.5-3.6
				c-0.1-1.1-0.4-3.1-0.5-4.3h-0.1c-0.2,1.2-0.5,3.3-0.6,4.3l-0.5,3.6H458.3z"/>
			<path id="Path_315" d="M468.1,171.4L468.1,171.4l-3.1,1.5l-0.7-3.4l4.2-2.1h3.7v18.2h-4.2L468.1,171.4z"/>
			<path id="Path_316" d="M475.7,185.6v-3l1.9-2.4c2.4-3,4-5.1,4-7.4c0.1-1.1-0.7-2.1-1.8-2.2c0,0,0,0-0.1,0h-0.3
				c-1,0-1.9,0.3-2.7,0.9l-0.7-3.4c1.3-0.7,2.7-1.1,4.2-1.1c4.3,0,5.5,2.9,5.5,5.4c0,3.4-2,5.9-4,8.1l-1,1.1v0.1h5.2v3.8
				L475.7,185.6z"/>
			<path id="Path_317" d="M492.2,181.6c0.8,0.5,1.7,0.7,2.7,0.7c1.2,0.2,2.3-0.7,2.5-1.9c0-0.1,0-0.2,0-0.3c0-1.9-1.5-2.5-3.2-2.5
				h-0.5v-3.1h0.4c1.3,0,2.9-0.4,2.9-2c0-1-0.7-1.8-1.7-1.8H495c-0.8,0-1.6,0.2-2.3,0.6l-0.5-3.3c1.2-0.6,2.5-0.9,3.8-0.9
				c3.4,0,5,2.2,5,4.5c0,1.7-1,3.3-2.5,4v0.1c1.9,0.7,3.1,2.6,3,4.6c0,2.7-2.2,5.6-6.3,5.6c-1.2,0-2.5-0.2-3.6-0.8L492.2,181.6z"/>
			<path id="Path_318" d="M504.4,167c1.5-0.3,3-0.4,4.5-0.4c1.7-0.2,3.5,0.3,4.9,1.3c1,0.9,1.5,2.2,1.5,3.6c0,1.8-1,3.4-2.6,4.1v0.1
				c1.9,0.6,3.3,2.3,3.2,4.4c0.1,1.4-0.4,2.7-1.4,3.7c-1.1,1.2-3,2-6.5,2c-1.2,0-2.4-0.1-3.6-0.2L504.4,167L504.4,167z M508.7,174.4
				h0.7c1.1,0,1.9-1,1.9-2.3s-0.6-2.2-1.7-2.2c-0.3,0-0.6,0-0.9,0.1L508.7,174.4z M508.7,182.4c0.2,0.1,0.5,0.1,0.7,0.1
				c1.4-0.1,2.4-1.3,2.3-2.6c-0.1-1.2-1.1-2.2-2.3-2.3h-0.7L508.7,182.4z"/>
			<path id="Path_319" d="M527.2,185.3c-0.9,0.3-1.9,0.5-2.8,0.4c-5.2,0-7.3-4.4-7.3-9.3c0-7,4-9.9,7.8-9.9c0.9,0,1.8,0.1,2.6,0.5
				l-0.6,3.7c-0.5-0.2-1-0.4-1.6-0.4c-2.1,0-3.7,1.7-3.7,5.9c0,4,1.5,5.7,3.6,5.7c0.5,0,1.1-0.1,1.6-0.2L527.2,185.3z"/>
			<path id="Path_320" d="M545.2,171.4L545.2,171.4l-3.1,1.5l-0.7-3.4l4.2-2.1h3.7v18.2h-4.2L545.2,171.4z"/>
			<path id="Path_321" d="M552.8,185.6v-3l1.9-2.4c2.4-3,4-5.1,4-7.4c0.1-1.1-0.7-2.1-1.8-2.2c0,0,0,0-0.1,0h-0.3
				c-1,0-1.9,0.3-2.7,0.9l-0.7-3.4c1.3-0.7,2.7-1.1,4.2-1.1c4.3,0,5.5,2.9,5.5,5.4c0,3.4-2,5.9-4,8.1l-1,1.1v0.1h5.2v3.8
				L552.8,185.6z"/>
			<path id="Path_322" d="M565.2,181.6c0.8,0.5,1.7,0.7,2.7,0.7c1.2,0.2,2.3-0.7,2.5-1.9c0,0,0,0,0,0c0-0.1,0-0.2,0-0.3
				c0-1.9-1.5-2.5-3.2-2.5h-0.5v-3.1h0.4c1.3,0,2.9-0.4,2.9-2c0-1-0.7-1.8-1.7-1.8c0,0,0,0,0,0H568c-0.8,0-1.6,0.2-2.3,0.6l-0.5-3.3
				c1.2-0.6,2.5-0.9,3.8-0.9c3.4,0,5,2.2,5,4.5c0,1.7-1,3.3-2.5,4v0.1c1.9,0.7,3.1,2.6,3,4.6c0,2.7-2.2,5.6-6.3,5.6
				c-1.2,0-2.5-0.2-3.6-0.8L565.2,181.6z"/>
		</g>
		<g id="Group_486">
			<g id="Group_485">
				<path id="Path_323" fill="#706C5E" d="M536.1,173.5v2.9h2.7v1.5h-2.7v2.9h-1.5v-2.9H532v-1.5h2.7v-2.9H536.1z"/>
			</g>
		</g>
	</g>
	<g id="Group_488">
		<g id="Group_487">
			<path id="Path_324" d="M466.7,150.5v-4.8l-3.6-6.6h1.7l1.6,3.1c0.4,0.9,0.8,1.6,1.1,2.3l0,0c0.3-0.7,0.7-1.5,1.1-2.3l1.6-3.1h1.7
				l-3.8,6.5v4.8L466.7,150.5L466.7,150.5L466.7,150.5z"/>
			<path id="Path_325" d="M479.4,146.3c0.2,2.2-1.4,4.1-3.6,4.3c-0.1,0-0.3,0-0.5,0c-2.2,0-3.9-1.7-3.9-3.9c0,0,0,0,0,0
				c0-0.1,0-0.2,0-0.4c-0.2-2.2,1.4-4.1,3.6-4.3c0.1,0,0.3,0,0.4,0c2.1-0.1,3.9,1.6,4,3.8c0,0,0,0,0,0.1
				C479.4,146.1,479.4,146.2,479.4,146.3z M472.9,146.4c0,1.8,1,3.1,2.5,3.1s2.5-1.3,2.5-3.2c0-1.4-0.7-3.1-2.5-3.1
				S472.8,144.9,472.9,146.4L472.9,146.4z"/>
			<path id="Path_326" d="M488,148.3c0,0.9,0,1.6,0.1,2.2h-1.3l-0.1-1.4l0,0c-0.6,1-1.6,1.5-2.7,1.5c-1.3,0-2.8-0.7-2.8-3.6v-4.8
				h1.5v4.5c0,1.6,0.5,2.6,1.8,2.6c1.2,0,2.1-0.9,2.1-2.1c0,0,0,0,0,0v-5h1.5L488,148.3L488,148.3z"/>
			<path id="Path_327" d="M490.5,144.9c0-1,0-1.8-0.1-2.6h1.3l0.1,1.6h0.1c0.3-1,1.2-1.7,2.3-1.8c0.1,0,0.3,0,0.4,0.1v1.4
				c-0.2,0-0.3-0.1-0.5-0.1c-1.1,0-1.9,0.8-2,1.9c0,0.2-0.1,0.5-0.1,0.7v4.4h-1.5V144.9z"/>
			<path id="Path_328" d="M499.6,145c0-1.1,0-1.9-0.1-2.7h1.4l0.1,1.4l0,0c0.6-1,1.7-1.6,2.9-1.6c2,0,3.5,1.7,3.5,4.2
				c0,2.9-1.8,4.4-3.7,4.4c-1,0-2-0.4-2.5-1.3l0,0v4.4h-1.5L499.6,145L499.6,145z M501.1,147.2c0,0.2,0,0.4,0,0.6
				c0.3,1,1.2,1.7,2.2,1.7c1.6,0,2.5-1.3,2.5-3.2c0-1.6-0.9-3-2.4-3c-1.1,0-2,0.8-2.3,1.8c-0.1,0.2-0.1,0.4-0.1,0.6V147.2
				L501.1,147.2z"/>
			<path id="Path_329" d="M516.6,146.3c0.2,2.2-1.4,4.1-3.6,4.3c-0.1,0-0.3,0-0.5,0c-2.2,0-3.9-1.7-3.9-3.9c0-0.1,0-0.2,0-0.4
				c-0.2-2.2,1.4-4.1,3.6-4.3c0.1,0,0.3,0,0.4,0c2.1-0.1,3.9,1.6,4,3.8c0,0,0,0,0,0.1C516.6,146.1,516.6,146.2,516.6,146.3z
				 M510.1,146.4c0,1.8,1,3.1,2.5,3.1c1.5,0,2.5-1.3,2.5-3.2c0-1.4-0.7-3.1-2.5-3.1S510.1,144.9,510.1,146.4z"/>
			<path id="Path_330" d="M518.3,149c0.6,0.4,1.3,0.6,2,0.6c1.1,0,1.6-0.5,1.6-1.2s-0.4-1.1-1.5-1.5c-1.5-0.5-2.2-1.4-2.2-2.3
				c0.1-1.4,1.2-2.5,2.6-2.4h0.2c0.7,0,1.4,0.2,2,0.5l-0.4,1.1c-0.5-0.3-1.1-0.5-1.7-0.5c-0.9,0-1.4,0.5-1.4,1.1s0.5,1,1.5,1.4
				c1.4,0.5,2.1,1.3,2.1,2.5c0,1.4-1.1,2.5-3,2.5c-0.8,0-1.6-0.2-2.3-0.6L518.3,149z"/>
			<path id="Path_331" d="M527,140v2.3h2.1v1.1H527v4.4c0,1,0.3,1.6,1.1,1.6c0.3,0,0.6,0,0.8-0.1l0.1,1.1c-0.4,0.1-0.9,0.2-1.3,0.2
				c-0.6,0-1.2-0.2-1.6-0.6c-0.4-0.6-0.7-1.4-0.6-2.1v-4.4h-1.3v-1.1h1.3v-2L527,140z"/>
			<path id="Path_332" d="M536.5,150.2c-0.7,0.3-1.5,0.5-2.3,0.5c-2.2,0.1-4-1.6-4.1-3.8c0-0.1,0-0.3,0-0.4c-0.1-2.3,1.7-4.2,4-4.3
				c0,0,0,0,0,0h0.4c0.7,0,1.4,0.1,2,0.4l-0.3,1.1c-0.5-0.3-1.1-0.4-1.7-0.4c-1.6,0-2.9,1.2-2.9,2.8c0,0.1,0,0.2,0,0.3
				c-0.1,1.5,1,2.9,2.5,3c0.1,0,0.2,0,0.3,0c0.6,0,1.3-0.1,1.8-0.4L536.5,150.2z"/>
			<path id="Path_333" d="M545.5,146.3c0.2,2.2-1.4,4.1-3.6,4.3c-0.1,0-0.3,0-0.5,0c-2.2,0-3.9-1.7-3.9-3.9c0,0,0,0,0,0
				c0-0.1,0-0.2,0-0.4c-0.2-2.2,1.4-4.1,3.6-4.3c0.1,0,0.3,0,0.4,0c2.1-0.1,3.9,1.6,4,3.8c0,0,0,0,0,0.1
				C545.5,146.1,545.5,146.2,545.5,146.3z M539,146.4c0,1.8,1,3.1,2.5,3.1s2.5-1.3,2.5-3.2c0-1.4-0.7-3.1-2.5-3.1
				S539,144.9,539,146.4L539,146.4z"/>
			<path id="Path_334" d="M554.4,138.5v9.9c0,0.7,0,1.6,0.1,2.1h-1.3l-0.1-1.4l0,0c-0.5,1-1.6,1.6-2.8,1.6c-2,0-3.5-1.7-3.5-4.2
				c0-2.7,1.7-4.4,3.7-4.4c1-0.1,1.9,0.4,2.5,1.3l0,0v-4.9H554.4z M552.9,145.6c0-0.2,0-0.4,0-0.6c-0.2-1-1.1-1.7-2.1-1.7
				c-1.5,0-2.5,1.4-2.5,3.2c0,1.6,0.8,3,2.4,3c1.1,0,2-0.7,2.2-1.8c0.1-0.2,0.1-0.4,0.1-0.6L552.9,145.6L552.9,145.6z"/>
			<path id="Path_335" d="M557.7,146.7c-0.1,1.4,0.9,2.7,2.4,2.8c0,0,0,0,0,0c0.1,0,0.3,0,0.4,0c0.8,0,1.5-0.1,2.3-0.4l0.3,1.1
				c-0.9,0.4-1.8,0.5-2.7,0.5c-2.1,0.1-3.9-1.5-4-3.5c0-0.2,0-0.4,0-0.6c0-2.5,1.5-4.4,3.8-4.4c2.7,0,3.4,2.3,3.4,3.8
				c0,0.2,0,0.5-0.1,0.7L557.7,146.7z M562.1,145.6c0.2-1.1-0.6-2.2-1.8-2.4H560c-1.3,0.1-2.3,1.1-2.3,2.4L562.1,145.6z"/>
		</g>
	</g>
	<g id="Group_490">
		<g id="Group_489">
			<path id="Path_336" d="M454.4,205.4l0.9,3.4c0.2,0.7,0.4,1.4,0.5,2.1l0,0c0.1-0.7,0.4-1.4,0.6-2.1l1.1-3.4h1l1,3.3
				c0.2,0.8,0.4,1.5,0.6,2.2l0,0c0.1-0.7,0.3-1.4,0.5-2.2l0.9-3.3h1.2l-2.1,6.6h-1.1l-1-3.2c-0.2-0.7-0.4-1.5-0.6-2.2l0,0
				c-0.2,0.7-0.4,1.5-0.6,2.2l-1.1,3.2h-1.1l-2-6.6L454.4,205.4L454.4,205.4L454.4,205.4z"/>
			<path id="Path_337" d="M465.4,203.6c0,0.4-0.3,0.7-0.7,0.7c0,0,0,0,0,0h-0.1c-0.4,0-0.7-0.3-0.7-0.7c0,0,0,0,0,0l0,0
				c0-0.4,0.3-0.7,0.7-0.8h0C465.1,202.9,465.4,203.2,465.4,203.6C465.4,203.6,465.4,203.6,465.4,203.6L465.4,203.6z M464.1,212.1
				v-6.6h1.2v6.6H464.1z"/>
			<path id="Path_338" d="M468.8,203.6v1.9h1.7v0.9h-1.7v3.6c0,0.8,0.2,1.3,0.9,1.3c0.2,0,0.5,0,0.7-0.1l0.1,0.9
				c-0.4,0.1-0.7,0.2-1.1,0.2c-0.5,0-1-0.2-1.3-0.5c-0.4-0.5-0.5-1.1-0.5-1.7v-3.6h-1v-0.9h1v-1.6L468.8,203.6z"/>
			<path id="Path_339" d="M471.9,202.4h1.2v4.2l0,0c0.2-0.4,0.5-0.7,0.9-0.9c0.4-0.2,0.8-0.3,1.2-0.4c0.9,0,2.3,0.6,2.3,2.8v3.9
				h-1.2v-3.8c0-1.1-0.4-2-1.5-2c-0.7,0-1.4,0.5-1.6,1.2c-0.1,0.2-0.1,0.4-0.1,0.6v4h-1.2L471.9,202.4L471.9,202.4z"/>
			<path id="Path_340" d="M486.1,212.1l-0.1-0.9l0,0c-0.5,0.6-1.2,1-2,1c-1,0.1-1.9-0.7-2-1.7c0-0.1,0-0.1,0-0.2
				c0-1.6,1.4-2.5,4-2.5v-0.1c0.1-0.8-0.4-1.4-1.2-1.6c-0.1,0-0.2,0-0.3,0c-0.6,0-1.2,0.2-1.7,0.5l-0.3-0.8c0.7-0.4,1.4-0.6,2.2-0.6
				c2,0,2.5,1.4,2.5,2.7v2.5c0,0.5,0,1.1,0.1,1.6L486.1,212.1z M485.9,208.7c-1.3,0-2.8,0.2-2.8,1.5c0,0.6,0.4,1.1,1,1.1
				c0,0,0,0,0,0h0.2c0.7,0,1.4-0.4,1.6-1.1c0-0.1,0.1-0.3,0.1-0.4L485.9,208.7z"/>
			<path id="Path_341" d="M497.5,210.3c0,0.6,0,1.2,0.1,1.8h-1.1l-0.1-1.1l0,0c-0.5,0.8-1.3,1.2-2.2,1.2c-1,0-2.3-0.6-2.3-2.9v-3.9
				h1.2v3.7c0,1.3,0.4,2.1,1.5,2.1c0.7,0,1.3-0.4,1.6-1.1c0.1-0.2,0.1-0.4,0.1-0.6v-4.1h1.2L497.5,210.3L497.5,210.3z"/>
			<path id="Path_342" d="M499.5,207.3c0-0.6,0-1.2-0.1-1.8h1.1l0.1,1.1l0,0c0.4-0.8,1.3-1.3,2.2-1.3c0.9,0,2.3,0.6,2.3,2.8v4H504
				v-3.8c0-1.1-0.4-2-1.5-2c-0.8,0-1.4,0.5-1.6,1.2c-0.1,0.2-0.1,0.4-0.1,0.6v4h-1.2L499.5,207.3L499.5,207.3z"/>
			<path id="Path_343" d="M508.5,203.6c0,0.4-0.3,0.7-0.7,0.7c0,0,0,0,0,0h-0.1c-0.4,0-0.7-0.3-0.7-0.7c0,0,0,0,0,0l0,0
				c0-0.4,0.3-0.7,0.7-0.8c0,0,0,0,0,0l0,0C508.2,202.9,508.5,203.2,508.5,203.6C508.5,203.6,508.5,203.6,508.5,203.6
				C508.5,203.6,508.5,203.6,508.5,203.6z M507.2,212.1v-6.6h1.2v6.6H507.2z"/>
			<path id="Path_344" d="M515,211.1L515,211.1c-0.5,0.8-1.3,1.2-2.2,1.2c-1.5,0-2.8-1.4-2.8-3.4c0-2.5,1.6-3.6,3-3.6
				c0.8,0,1.6,0.4,2,1.1l0,0v-1h1.1c0,0.6,0,1.1,0,1.9v7.6H515V211.1z M515,208.2c0-0.2,0-0.3-0.1-0.5c-0.2-0.8-0.9-1.4-1.7-1.4
				c-1.3,0-2,1.1-2,2.6c0,1.3,0.6,2.5,2,2.5c0.8,0,1.5-0.5,1.7-1.3c0.1-0.2,0.1-0.4,0.1-0.6L515,208.2L515,208.2z"/>
			<path id="Path_345" d="M523.7,210.3c0,0.6,0,1.2,0.1,1.8h-1.1l-0.1-1.1l0,0c-0.5,0.8-1.3,1.2-2.2,1.2c-1,0-2.3-0.6-2.3-2.9v-3.9
				h1.2v3.7c0,1.3,0.4,2.1,1.5,2.1c0.7,0,1.3-0.4,1.6-1.1c0.1-0.2,0.1-0.4,0.1-0.6v-4.1h1.2L523.7,210.3L523.7,210.3z"/>
			<path id="Path_346" d="M526.4,209c-0.1,1.2,0.8,2.2,2,2.3c0,0,0,0,0,0h0.3c0.6,0,1.3-0.1,1.8-0.4l0.2,0.9
				c-0.7,0.3-1.5,0.4-2.2,0.4c-1.7,0.1-3.2-1.2-3.3-2.9c0,0,0,0,0,0c0-0.2,0-0.3,0-0.5c0-2,1.2-3.6,3.1-3.6c2.2,0,2.8,1.9,2.8,3.1
				c0,0.2,0,0.4,0,0.6L526.4,209L526.4,209z M530,208.1c0.2-0.9-0.5-1.8-1.4-2c0,0,0,0-0.1,0h-0.2c-1,0.1-1.8,1-1.8,2H530z"/>
			<path id="Path_347" d="M535.5,207.3c0-0.6,0-1.2-0.1-1.8h1.1l0.1,1.1l0,0c0.4-0.8,1.3-1.3,2.2-1.3c0.9,0,2.3,0.6,2.3,2.8v4H540
				v-3.8c0-1.1-0.4-2-1.5-2c-0.7,0-1.4,0.5-1.6,1.2c-0.1,0.2-0.1,0.4-0.1,0.6v4h-1.2V207.3L535.5,207.3z"/>
			<path id="Path_348" d="M548.8,210.3c0,0.6,0,1.2,0,1.8h-1.1l-0.1-1.1l0,0c-0.5,0.8-1.3,1.2-2.2,1.2c-1,0-2.3-0.6-2.3-2.9v-3.9
				h1.2v3.7c0,1.3,0.4,2.1,1.5,2.1c0.7,0,1.3-0.4,1.6-1.1c0.1-0.2,0.1-0.4,0.1-0.6v-4.1h1.2L548.8,210.3L548.8,210.3z"/>
			<path id="Path_349" d="M550.8,207.3c0-0.6,0-1.2-0.1-1.8h1l0.1,1.1l0,0c0.4-0.8,1.2-1.3,2.1-1.2c0.9,0,1.6,0.5,1.9,1.3l0,0
				c0.2-0.3,0.4-0.6,0.7-0.9c0.4-0.3,0.9-0.5,1.5-0.5c0.9,0,2.2,0.6,2.2,2.9v3.9H559v-3.8c0-1.3-0.5-2-1.4-2c-0.7,0-1.2,0.5-1.4,1.1
				c-0.1,0.2-0.1,0.4-0.1,0.6v4.1h-1.2v-4c0-1.1-0.5-1.9-1.4-1.9c-0.7,0-1.3,0.5-1.5,1.2c-0.1,0.2-0.1,0.4-0.1,0.6v4h-1.2
				L550.8,207.3L550.8,207.3z"/>
			<path id="Path_350" d="M562.2,212.1c0-0.5,0.1-1.1,0.1-1.7v-8.1h1.2v4.2l0,0c0.5-0.8,1.4-1.3,2.3-1.2c1.6,0,2.8,1.4,2.8,3.4
				c0,2.4-1.5,3.6-3,3.6c-0.9,0.1-1.8-0.4-2.2-1.3l0,0l-0.1,1.1L562.2,212.1z M563.5,209.5c0,0.1,0,0.3,0.1,0.4
				c0.2,0.8,1,1.4,1.8,1.4c1.3,0,2-1,2-2.6c0-1.3-0.7-2.5-2-2.5c-0.9,0-1.6,0.6-1.8,1.5c0,0.2-0.1,0.3-0.1,0.5L563.5,209.5
				L563.5,209.5z"/>
			<path id="Path_351" d="M570.8,209c-0.1,1.2,0.8,2.2,2,2.3c0,0,0,0,0,0h0.3c0.6,0,1.3-0.1,1.8-0.4l0.2,0.9
				c-0.7,0.3-1.5,0.4-2.2,0.4c-1.7,0.1-3.2-1.2-3.3-2.9c0,0,0,0,0,0c0-0.2,0-0.3,0-0.5c0-2,1.2-3.6,3.1-3.6c2.2,0,2.8,1.9,2.8,3.1
				c0,0.2,0,0.4,0,0.6L570.8,209L570.8,209z M574.3,208.1c0.2-0.9-0.5-1.8-1.4-2c0,0,0,0-0.1,0h-0.2c-1,0.1-1.9,1-1.8,2H574.3z"/>
			<path id="Path_352" d="M577,207.5c0-0.8,0-1.5-0.1-2.1h1.1v1.3h0c0.2-0.8,1-1.4,1.8-1.5c0.1,0,0.2,0,0.3,0v1.1
				c-0.1,0-0.3,0-0.4,0c-0.9,0-1.5,0.7-1.6,1.6c0,0.2-0.1,0.4-0.1,0.6v3.5H577V207.5z"/>
		</g>
	</g>
</g>
<g id="House">
	<rect id="Rectangle_418" x="36.6" y="226.5" fill="#7F8C38" width="242" height="11.2"/>
	<rect id="Rectangle_419" x="36.6" y="226.5" fill="#7FB141" width="242" height="5.6"/>
	<rect id="Rectangle_420" x="59.3" y="156" fill="#CB7E35" width="202.2" height="70.5"/>
	<rect id="Rectangle_421" x="59.4" y="156" fill="#F69554" width="98.9" height="70.5"/>
	<rect id="Rectangle_422" x="166.9" y="171.1" fill="#BB6A29" width="35" height="53.5"/>
	<g id="Group_492">
		<rect id="Rectangle_423" x="172.3" y="176.6" fill="#A3886B" width="24.1" height="42.5"/>
		<g id="Group_491">
			<path id="Path_353" fill="#836A4E" d="M170.2,174.5h28.3v46.7h-28.3V174.5z M194.3,178.7h-19.9v38.3h19.9V178.7z"/>
		</g>
	</g>
	<rect id="Rectangle_424" x="158.4" y="156.3" fill="#BB6A29" width="100.3" height="6.1"/>
	<rect id="Rectangle_425" x="222" y="168.4" fill="#065C6F" width="27.4" height="13.8"/>
	<rect id="Rectangle_426" x="225.6" y="176.5" fill="#5E9F9C" width="19.3" height="5.7"/>
	<g id="Group_493">
		<rect id="Rectangle_427" x="118.1" y="214.6" fill="#CB7E35" width="6.4" height="3.8"/>
		<rect id="Rectangle_428" x="111.4" y="222.9" fill="#CB7E35" width="6.4" height="3.8"/>
		<rect id="Rectangle_429" x="91.7" y="214.6" fill="#CB7E35" width="6.4" height="3.8"/>
		<rect id="Rectangle_430" x="83.4" y="222.9" fill="#CB7E35" width="6.4" height="3.8"/>
		<rect id="Rectangle_431" x="59.4" y="170.8" fill="#CB7E35" width="6.4" height="3.8"/>
		<rect id="Rectangle_432" x="66" y="179" fill="#CB7E35" width="6.4" height="3.8"/>
	</g>
	<g id="Group_497">
		<rect id="Rectangle_433" x="81.1" y="169.8" fill="#065C6F" width="56.3" height="37.6"/>
		<rect id="Rectangle_434" x="88.9" y="190.2" fill="#5E9F9C" width="40.7" height="17.2"/>
		<g id="Group_494">
			<rect id="Rectangle_435" x="77.5" y="180.7" fill="#F69554" width="61.8" height="4.2"/>
		</g>
		<g id="Group_495">
			<rect id="Rectangle_436" x="117.2" y="168" fill="#F69554" width="4.2" height="40.3"/>
		</g>
		<g id="Group_496">
			<rect id="Rectangle_437" x="96.8" y="168" fill="#F69554" width="4.2" height="40.3"/>
		</g>
	</g>
	<rect id="Rectangle_438" x="208.4" y="156" fill="#E2E1DD" width="5" height="70.5"/>
	<rect id="Rectangle_439" x="228.8" y="200" fill="#E2E1DD" width="3.6" height="26.6"/>
	<rect id="Rectangle_440" x="219" y="200" fill="#E2E1DD" width="3.6" height="26.6"/>
	<rect id="Rectangle_441" x="238.6" y="200" fill="#E2E1DD" width="3.6" height="26.6"/>
	<rect id="Rectangle_442" x="248.4" y="200" fill="#E2E1DD" width="3.6" height="26.6"/>
	<rect id="Rectangle_443" x="210.9" y="197.9" fill="#E2E1DD" width="50.6" height="5"/>
	<rect id="Rectangle_444" x="210.9" y="221.5" fill="#E2E1DD" width="50.6" height="5"/>
	<rect id="Rectangle_445" x="155.8" y="220.7" fill="#E2E1DD" width="57.6" height="5.8"/>
	<rect id="Rectangle_446" x="257.6" y="156" fill="#E2E1DD" width="5" height="70.5"/>
	<rect id="Rectangle_447" x="155.8" y="156" fill="#E2E1DD" width="5" height="70.5"/>
	<path id="Path_354" fill="#5D6161" d="M154.1,72.3L261,156.1H47.2L154.1,72.3z"/>
	<path id="Path_355" fill="#707675" d="M208.7,108.5l60.8,47.6H147.9L208.7,108.5z"/>
	<rect id="Rectangle_448" x="147.9" y="156" fill="#5D6161" width="121.5" height="5.6"/>
	<rect id="Rectangle_449" x="47.2" y="156" fill="#4A4C4C" width="100.8" height="5.6"/>
</g>
<g id="EqualCircle">
	<circle id="Ellipse_14" fill="#FFFFFF" cx="369.7" cy="196" r="30.4"/>
	<g id="Group_498">
		<path id="Path_356" fill="#001A1E" d="M354.3,193.7v-7.8h31.1v7.8H354.3z M354.3,207.1v-7.8h31.1v7.9L354.3,207.1z"/>
	</g>
</g>
</svg>
