<?xml version="1.0" encoding="utf-8"?>
<!-- Generator: Adobe Illustrator 24.0.0, SVG Export Plug-In . SVG Version: 6.00 Build 0)  -->
<svg version="1.1" id="Layer_1" xmlns="http://www.w3.org/2000/svg" xmlns:xlink="http://www.w3.org/1999/xlink" x="0px" y="0px"
	 width="765.4px" height="318.1px" viewBox="0 0 765.4 318.1" style="enable-background:new 0 0 765.4 318.1;" xml:space="preserve"
	>
<style type="text/css">
	.st0{fill:none;}
	.st1{fill:#FFFFFF;}
	.st2{font-family:'MyriadPro-Regular';}
	.st3{font-size:24.3724px;}
	.st4{font-family:'MyriadPro-Bold';}
	.st5{font-size:67.3825px;}
	.st6{fill:#FB0025;stroke:#FFFFFF;stroke-width:5;}
	.st7{font-size:17px;}
	.st8{font-size:47px;}
	.st9{fill:#EA8410;stroke:#FFFFFF;stroke-width:4;}
	.st10{fill:#1FA02E;stroke:#FFFFFF;stroke-width:4;}
</style>
<g>
	<rect x="256.3" y="160.1" class="st0" width="254.2" height="146.2"/>
	<text transform="matrix(1 0 0 1 257.5544 177.4381)" class="st1 st2 st3">Every Saturday &amp; Sunday </text>
	<text transform="matrix(1 0 0 1 263.6544 206.6381)" class="st1 st2 st3">for every winning ticket </text>
	<text transform="matrix(1 0 0 1 309.9544 235.9381)" class="st1 st2 st3">in 1 postcodes</text>
	<rect x="253.5" y="88.1" class="st0" width="254.8" height="83.3"/>
	<text transform="matrix(1 0 0 1 259.9353 135.9479)" class="st1 st4 st5">£30,000</text>
	<g id="Group_1269_10_">
		<g id="_82a514b57319a5e5e360e034506685f1fa50c0bd-3_10_">
			<path id="Path_1458-3_10_" class="st6" d="M382.7,9.9c81.1,0,147,66.2,147,147.8s-65.8,147.8-147,147.8s-147-66.2-147-147.8
				S301.6,9.9,382.7,9.9z"/>
		</g>
	</g>
	<g>
		<path class="st1" d="M326.1,175.2c0.6,0.4,1.8,0.9,2.8,0.9c1.6,0,2.3-0.8,2.3-1.8s-0.6-1.6-2.2-2.2c-2.1-0.8-3.1-1.9-3.1-3.3
			c0-1.9,1.5-3.5,4.1-3.5c1.2,0,2.2,0.3,2.9,0.7l-0.5,1.6c-0.5-0.3-1.3-0.7-2.4-0.7c-1.3,0-2,0.7-2,1.6c0,1,0.7,1.4,2.2,2
			c2,0.8,3.1,1.8,3.1,3.6c0,2.1-1.6,3.5-4.4,3.5c-1.3,0-2.5-0.3-3.3-0.8L326.1,175.2z"/>
		<path class="st1" d="M336,160.1h2.1v7.4l0,0c0.3-0.6,0.9-1.1,1.5-1.5s1.4-0.6,2.2-0.6c1.6,0,4.1,1,4.1,5v7h-2.1v-6.8
			c0-1.9-0.7-3.5-2.7-3.5c-1.4,0-2.5,1-2.9,2.1c-0.1,0.3-0.1,0.6-0.1,1v7.1H336V160.1z"/>
		<path class="st1" d="M356.1,177.4l-0.2-1.5h-0.1c-0.7,0.9-1.9,1.8-3.6,1.8c-2.4,0-3.6-1.7-3.6-3.4c0-2.9,2.5-4.4,7.1-4.4v-0.2
			c0-1-0.3-2.7-2.7-2.7c-1.1,0-2.2,0.3-3.1,0.9l-0.5-1.4c1-0.6,2.4-1,3.9-1c3.6,0,4.5,2.5,4.5,4.8v4.4c0,1,0,2,0.2,2.8h-1.9
			L356.1,177.4L356.1,177.4z M355.8,171.4c-2.3,0-5,0.4-5,2.7c0,1.4,0.9,2,2,2c1.5,0,2.5-1,2.9-2c0.1-0.2,0.1-0.5,0.1-0.7V171.4z"/>
		<path class="st1" d="M361.3,169.3c0-1.4,0-2.6-0.1-3.7h1.9l0.1,2.3h0.1c0.5-1.6,1.8-2.6,3.3-2.6c0.2,0,0.4,0,0.6,0.1v2
			c-0.2,0-0.4-0.1-0.7-0.1c-1.5,0-2.6,1.1-2.9,2.8c0,0.3-0.1,0.6-0.1,1v6.3h-2.1L361.3,169.3L361.3,169.3z"/>
		<path class="st1" d="M370.2,171.9c0,2.9,1.9,4.1,4,4.1c1.5,0,2.5-0.3,3.3-0.6l0.4,1.5c-0.8,0.3-2,0.7-3.9,0.7
			c-3.6,0-5.8-2.4-5.8-5.9c0-3.6,2.1-6.4,5.5-6.4c3.9,0,4.9,3.4,4.9,5.6c0,0.4,0,0.8-0.1,1L370.2,171.9L370.2,171.9z M376.5,170.4
			c0-1.4-0.6-3.5-3-3.5c-2.2,0-3.1,2-3.3,3.5H376.5z"/>
		<path class="st1" d="M391.4,160.1v14.3c0,1,0,2.2,0.1,3h-1.9l-0.1-2l0,0c-0.7,1.3-2.1,2.3-4,2.3c-2.9,0-5-2.4-5-6
			c0-3.9,2.4-6.3,5.3-6.3c1.8,0,3,0.9,3.6,1.8l0,0v-7h2V160.1z M389.3,170.4c0-0.3,0-0.6-0.1-0.9c-0.3-1.4-1.5-2.5-3.1-2.5
			c-2.2,0-3.5,1.9-3.5,4.6c0,2.4,1.2,4.4,3.5,4.4c1.4,0,2.8-0.9,3.1-2.6c0.1-0.3,0.1-0.6,0.1-0.9V170.4z"/>
		<path class="st1" d="M400.1,177.4c0-0.8,0.1-2,0.1-3v-14.3h2.1v7.4l0,0c0.8-1.3,2.1-2.2,4-2.2c2.9,0,5,2.4,5,6
			c0,4.2-2.7,6.3-5.3,6.3c-1.7,0-3.1-0.7-3.9-2.2H402l-0.1,1.9h-1.8V177.4z M402.3,172.7c0,0.3,0,0.5,0.1,0.8
			c0.4,1.5,1.7,2.5,3.2,2.5c2.2,0,3.6-1.8,3.6-4.5c0-2.4-1.2-4.4-3.5-4.4c-1.5,0-2.8,1-3.3,2.6c0,0.2-0.1,0.5-0.1,0.9L402.3,172.7
			L402.3,172.7z"/>
		<path class="st1" d="M414.6,165.6l2.6,7c0.3,0.8,0.6,1.7,0.8,2.4l0,0c0.2-0.7,0.5-1.6,0.8-2.5l2.3-6.9h2.3l-3.2,8.4
			c-1.5,4-2.6,6.1-4,7.4c-1,0.9-2.1,1.3-2.6,1.4L413,181c0.5-0.2,1.2-0.5,1.9-1c0.6-0.5,1.3-1.3,1.8-2.4c0.1-0.2,0.2-0.4,0.2-0.5
			s0-0.3-0.1-0.6l-4.4-10.9H414.6z"/>
		<path class="st1" d="M434.5,164.9L434.5,164.9l-3.1,1.4l-0.6-2.8l4.2-1.9h3.1v15.8h-3.6V164.9z"/>
		<path class="st1" d="M303.3,189.4h3.7v17.3h-3.7V189.4z"/>
		<path class="st1" d="M321.2,202.9c0,1.6,0,2.8,0.1,3.8h-3.2L318,205h-0.1c-0.5,0.7-1.6,1.9-3.7,1.9c-2.4,0-4.2-1.5-4.2-5.2v-7h3.7
			v6.4c0,1.7,0.6,2.8,1.9,2.8c1,0,1.6-0.7,1.9-1.3c0.1-0.2,0.1-0.5,0.1-0.8v-7.1h3.7L321.2,202.9L321.2,202.9z"/>
		<path class="st1" d="M333.2,206.4c-0.7,0.3-1.9,0.5-3.3,0.5c-3.9,0-6.3-2.3-6.3-6.1c0-3.5,2.4-6.3,6.8-6.3c1,0,2,0.2,2.8,0.5
			l-0.6,2.8c-0.4-0.2-1.1-0.4-2.1-0.4c-2,0-3.2,1.4-3.2,3.3c0,2.2,1.5,3.3,3.3,3.3c0.9,0,1.6-0.1,2.1-0.4L333.2,206.4z"/>
		<path class="st1" d="M338.9,199.8L338.9,199.8c0.3-0.5,0.6-1,0.9-1.4l2.4-3.6h4.5l-4.3,4.8l4.9,7.1h-4.6l-2.9-4.9l-0.9,1.2v3.7
			h-3.7v-17.3h3.7V199.8z"/>
		<path class="st1" d="M351.3,194.8l1.8,5.8c0.2,0.7,0.4,1.6,0.6,2.2h0.1c0.2-0.6,0.4-1.5,0.5-2.2l1.5-5.8h4l-2.8,7.8
			c-1.7,4.7-2.9,6.6-4.2,7.8c-1.3,1.1-2.7,1.5-3.6,1.6l-0.8-3.1c0.5-0.1,1-0.3,1.6-0.6s1.2-0.9,1.5-1.5c0.1-0.2,0.2-0.4,0.2-0.5
			s0-0.3-0.2-0.6l-4.4-10.9H351.3z"/>
		<path class="st1" d="M366.2,198.8c0-1.6,0-2.9-0.1-4h3.2l0.2,1.7l0,0c0.9-1.3,2.2-1.9,4-1.9c2.6,0,4.9,2.3,4.9,6.1
			c0,4.3-2.8,6.4-5.4,6.4c-1.4,0-2.6-0.6-3.1-1.4l0,0v5.9h-3.7V198.8z M369.9,201.6c0,0.3,0,0.6,0.1,0.8c0.2,1,1.1,1.8,2.2,1.8
			c1.6,0,2.6-1.3,2.6-3.4c0-1.9-0.9-3.3-2.5-3.3c-1,0-2,0.8-2.2,1.9c0,0.2-0.1,0.4-0.1,0.7v1.5H369.9z"/>
		<path class="st1" d="M392.6,200.6c0,4.4-3.1,6.4-6.3,6.4c-3.5,0-6.2-2.3-6.2-6.1c0-3.9,2.5-6.3,6.4-6.3
			C390.1,194.5,392.6,197,392.6,200.6z M384,200.7c0,2,0.9,3.6,2.4,3.6c1.4,0,2.4-1.4,2.4-3.6c0-1.8-0.7-3.6-2.4-3.6
			C384.6,197.1,384,199,384,200.7z"/>
		<path class="st1" d="M394.9,203.4c0.7,0.4,2.1,0.9,3.2,0.9s1.6-0.4,1.6-1s-0.4-0.9-1.8-1.4c-2.5-0.8-3.4-2.2-3.4-3.6
			c0-2.2,1.9-3.9,4.8-3.9c1.4,0,2.6,0.3,3.4,0.7l-0.7,2.6c-0.5-0.3-1.6-0.7-2.6-0.7c-0.9,0-1.4,0.4-1.4,1s0.5,0.9,1.9,1.4
			c2.3,0.8,3.2,1.9,3.2,3.7c0,2.2-1.8,3.9-5.2,3.9c-1.6,0-2.9-0.3-3.9-0.8L394.9,203.4z"/>
		<path class="st1" d="M409.6,191.4v3.4h2.7v2.7h-2.7v4.3c0,1.4,0.3,2.1,1.5,2.1c0.5,0,0.8,0,1.1-0.1v2.8c-0.5,0.2-1.4,0.3-2.4,0.3
			c-1.2,0-2.2-0.4-2.8-1c-0.7-0.7-1-1.9-1-3.5v-4.9h-1.6v-2.7h1.6v-2.6L409.6,191.4z"/>
		<path class="st1" d="M423.2,206.4c-0.7,0.3-1.9,0.5-3.3,0.5c-3.9,0-6.3-2.3-6.3-6.1c0-3.5,2.4-6.3,6.8-6.3c1,0,2,0.2,2.8,0.5
			l-0.6,2.8c-0.4-0.2-1.1-0.4-2.1-0.4c-1.9,0-3.2,1.4-3.2,3.3c0,2.2,1.5,3.3,3.3,3.3c0.9,0,1.6-0.1,2.1-0.4L423.2,206.4z"/>
		<path class="st1" d="M436.8,200.6c0,4.4-3.1,6.4-6.3,6.4c-3.5,0-6.2-2.3-6.2-6.1c0-3.9,2.5-6.3,6.4-6.3
			C434.3,194.5,436.8,197,436.8,200.6z M428.1,200.7c0,2,0.9,3.6,2.4,3.6c1.4,0,2.4-1.4,2.4-3.6c0-1.8-0.7-3.6-2.4-3.6
			C428.8,197.1,428.1,199,428.1,200.7z"/>
		<path class="st1" d="M450.7,189.4v13.7c0,1.3,0,2.8,0.1,3.6h-3.3l-0.2-1.8l0,0c-0.8,1.3-2.2,2-3.7,2c-2.8,0-5.1-2.4-5.1-6.1
			c0-4,2.5-6.3,5.3-6.3c1.5,0,2.6,0.5,3.1,1.3l0,0v-6.5h3.8L450.7,189.4L450.7,189.4z M447,199.8c0-0.2,0-0.5,0-0.7
			c-0.2-1-1-1.8-2.2-1.8c-1.7,0-2.6,1.5-2.6,3.4c0,2,1,3.3,2.5,3.3c1.1,0,1.9-0.7,2.1-1.8c0.1-0.3,0.1-0.5,0.1-0.9v-1.5H447z"/>
		<path class="st1" d="M456.5,201.9c0.1,1.5,1.6,2.3,3.4,2.3c1.3,0,2.3-0.2,3.3-0.5l0.5,2.5c-1.2,0.5-2.7,0.7-4.3,0.7
			c-4,0-6.4-2.3-6.4-6.1c0-3,1.9-6.4,6-6.4c3.9,0,5.3,3,5.3,5.9c0,0.6-0.1,1.2-0.1,1.5h-7.7L456.5,201.9L456.5,201.9z M460.9,199.4
			c0-0.9-0.4-2.4-2.1-2.4c-1.6,0-2.2,1.4-2.3,2.4H460.9z"/>
		<path class="st1" d="M297.8,235.9l-0.2-1.2h-0.1c-0.8,1-2,1.5-3.4,1.5c-2.4,0-3.9-1.8-3.9-3.7c0-3.1,2.8-4.6,7-4.6v-0.2
			c0-0.6-0.3-1.5-2.2-1.5c-1.2,0-2.5,0.4-3.3,0.9l-0.7-2.4c0.8-0.5,2.5-1,4.6-1c4,0,5.2,2.3,5.2,5.1v4.1c0,1.1,0,2.2,0.2,2.9
			L297.8,235.9L297.8,235.9z M297.3,230.3c-1.9,0-3.5,0.4-3.5,1.9c0,1,0.6,1.4,1.5,1.4s1.7-0.6,1.9-1.4c0-0.2,0.1-0.4,0.1-0.6V230.3
			z"/>
		<path class="st1" d="M303.8,227.9c0-1.8,0-2.9-0.1-3.9h3.2l0.1,2.2h0.1c0.6-1.7,2.1-2.5,3.2-2.5c0.3,0,0.5,0,0.8,0v3.5
			c-0.3,0-0.6-0.1-1-0.1c-1.4,0-2.3,0.7-2.5,1.9c0,0.2-0.1,0.5-0.1,0.8v6h-3.7V227.9z"/>
		<path class="st1" d="M315.8,231.2c0.1,1.5,1.6,2.3,3.4,2.3c1.3,0,2.3-0.2,3.3-0.5l0.5,2.5c-1.2,0.5-2.7,0.7-4.3,0.7
			c-4,0-6.4-2.3-6.4-6.1c0-3,1.9-6.4,6-6.4c3.9,0,5.3,3,5.3,5.9c0,0.6-0.1,1.2-0.1,1.5h-7.7L315.8,231.2L315.8,231.2z M320.1,228.6
			c0-0.9-0.4-2.4-2.1-2.4c-1.6,0-2.2,1.4-2.3,2.4H320.1z"/>
		<path class="st1" d="M332.6,235.9l-0.2-1.2h-0.1c-0.8,1-2,1.5-3.4,1.5c-2.4,0-3.9-1.8-3.9-3.7c0-3.1,2.8-4.6,7-4.6v-0.2
			c0-0.6-0.3-1.5-2.2-1.5c-1.2,0-2.5,0.4-3.3,0.9l-0.7-2.4c0.8-0.5,2.5-1,4.6-1c4,0,5.2,2.3,5.2,5.1v4.1c0,1.1,0,2.2,0.2,2.9
			L332.6,235.9L332.6,235.9z M332.1,230.3c-1.9,0-3.5,0.4-3.5,1.9c0,1,0.6,1.4,1.5,1.4s1.7-0.6,1.9-1.4c0-0.2,0.1-0.4,0.1-0.6V230.3
			z"/>
		<path class="st1" d="M345.3,230.4c0,2.9,1.9,4.1,4,4.1c1.5,0,2.5-0.3,3.3-0.6l0.4,1.5c-0.8,0.3-2,0.7-3.9,0.7
			c-3.6,0-5.8-2.4-5.8-5.9c0-3.6,2.1-6.4,5.5-6.4c3.9,0,4.9,3.4,4.9,5.6c0,0.4,0,0.8-0.1,1L345.3,230.4L345.3,230.4z M351.6,228.9
			c0-1.4-0.6-3.5-3-3.5c-2.2,0-3.1,2-3.3,3.5H351.6z"/>
		<path class="st1" d="M357.1,224.1l2.3,6.6c0.4,1.1,0.7,2,1,3h0.1c0.3-1,0.6-1.9,1-3l2.3-6.6h2.2l-4.6,11.8h-2l-4.5-11.8H357.1z"/>
		<path class="st1" d="M369,230.4c0,2.9,1.9,4.1,4,4.1c1.5,0,2.5-0.3,3.3-0.6l0.4,1.5c-0.8,0.3-2,0.7-3.9,0.7
			c-3.6,0-5.8-2.4-5.8-5.9c0-3.6,2.1-6.4,5.5-6.4c3.9,0,4.9,3.4,4.9,5.6c0,0.4,0,0.8-0.1,1L369,230.4L369,230.4z M375.3,228.9
			c0-1.4-0.6-3.5-3-3.5c-2.2,0-3.1,2-3.3,3.5H375.3z"/>
		<path class="st1" d="M380,227.8c0-1.4,0-2.6-0.1-3.7h1.9l0.1,2.3h0.1c0.5-1.6,1.8-2.6,3.3-2.6c0.2,0,0.4,0,0.6,0.1v2
			c-0.2,0-0.4-0.1-0.7-0.1c-1.5,0-2.6,1.1-2.9,2.8c0,0.3-0.1,0.6-0.1,1v6.3H380V227.8z"/>
		<path class="st1" d="M389.4,224.1l2.6,7c0.3,0.8,0.6,1.7,0.8,2.4l0,0c0.2-0.7,0.5-1.6,0.8-2.5l2.3-6.9h2.3l-3.2,8.4
			c-1.5,4-2.6,6.1-4,7.4c-1,0.9-2.1,1.3-2.6,1.4l-0.5-1.8c0.5-0.2,1.2-0.5,1.9-1c0.6-0.5,1.3-1.3,1.8-2.4c0.1-0.2,0.2-0.4,0.2-0.5
			s0-0.3-0.1-0.6l-4.4-10.9L389.4,224.1L389.4,224.1z"/>
		<path class="st1" d="M405.2,227.3c0-1.2,0-2.2-0.1-3.2h1.9l0.1,1.9h0.1c0.7-1.1,1.8-2.2,3.7-2.2c1.6,0,2.8,1,3.3,2.4l0,0
			c0.4-0.7,0.8-1.2,1.3-1.5c0.7-0.5,1.5-0.8,2.6-0.8c1.6,0,3.9,1,3.9,5.1v6.9h-2v-6.7c0-2.3-0.8-3.6-2.6-3.6c-1.2,0-2.2,0.9-2.5,1.9
			c-0.1,0.3-0.2,0.7-0.2,1.1v7.3h-2.1v-7.1c0-1.9-0.8-3.2-2.5-3.2c-1.3,0-2.3,1.1-2.7,2.1c-0.1,0.3-0.2,0.7-0.2,1v7.1h-2.1v-8.5
			H405.2z"/>
		<path class="st1" d="M436.2,229.9c0,4.4-3,6.3-5.9,6.3c-3.2,0-5.7-2.3-5.7-6.1c0-3.9,2.6-6.3,5.8-6.3
			C433.9,223.9,436.2,226.3,436.2,229.9z M426.9,230.1c0,2.6,1.5,4.5,3.6,4.5c2,0,3.6-1.9,3.6-4.6c0-2-1-4.5-3.5-4.5
			C428,225.5,426.9,227.8,426.9,230.1z"/>
		<path class="st1" d="M438.9,227.3c0-1.2,0-2.2-0.1-3.2h1.9l0.1,1.9l0,0c0.6-1.1,1.9-2.2,3.9-2.2c1.6,0,4.2,1,4.2,5v7h-2.1V229
			c0-1.9-0.7-3.5-2.7-3.5c-1.4,0-2.5,1-2.9,2.2c-0.1,0.3-0.1,0.6-0.1,1v7.1H439L438.9,227.3L438.9,227.3z"/>
		<path class="st1" d="M455,220.8v3.4h3.1v1.6H455v6.4c0,1.5,0.4,2.3,1.6,2.3c0.6,0,1-0.1,1.2-0.1l0.1,1.6c-0.4,0.2-1.1,0.3-1.9,0.3
			c-1,0-1.8-0.3-2.3-0.9c-0.6-0.6-0.8-1.7-0.8-3.1v-6.4H451v-1.6h1.8v-2.8L455,220.8z"/>
		<path class="st1" d="M460.4,218.6h2.1v7.4l0,0c0.3-0.6,0.9-1.1,1.5-1.5s1.4-0.6,2.2-0.6c1.6,0,4.1,1,4.1,5v7h-2.1v-6.8
			c0-1.9-0.7-3.5-2.7-3.5c-1.4,0-2.5,1-2.9,2.1c-0.1,0.3-0.1,0.6-0.1,1v7.1h-2.1V218.6z"/>
		<path class="st1" d="M480.2,220.1l-2.3,3l0,0l3.7-0.5v1.7l-3.7-0.4l0,0l2.3,2.9l-1.5,0.9l-1.5-3.4l0,0l-1.6,3.4l-1.4-0.9l2.3-3
			l0,0l-3.6,0.5v-1.7l3.6,0.5l0,0l-2.3-3l1.5-0.9l1.5,3.4l0,0l1.5-3.4L480.2,220.1z"/>
	</g>
	<g>
		<path class="st1" d="M287.9,137.9v-8.1c5.3-2.2,11.2-7.9,11.2-14.8c0-1.4-0.1-2.6-0.3-4H289v-10.3h8c-0.5-2.5-0.8-5.4-0.8-8.1
			c0-12.6,9.2-21,22.7-21c5.5,0,9.6,1.2,11.8,2.4l-2.5,11.5c-1.9-1.1-4.7-1.8-8.4-1.8c-7.1,0-9.3,4.6-9.3,9.4c0,2.6,0.3,5,0.9,7.5
			h13.8V111h-12.4c0.1,2.5-0.1,4.8-0.9,7.1c-0.9,2.5-2.5,5-4.9,7.1v0.2h26.8v12.4h-45.9L287.9,137.9L287.9,137.9z"/>
		<path class="st1" d="M345.4,122.9c2.7,1.4,8.9,4,15.2,4c7.9,0,11.9-3.8,11.9-8.7c0-6.4-6.4-9.3-13.1-9.3h-6.2v-11h5.9
			c5.1-0.1,11.6-2,11.6-7.5c0-3.9-3.2-6.8-9.6-6.8c-5.3,0-10.9,2.3-13.7,3.9l-3.1-11c3.9-2.5,11.7-4.9,20.2-4.9
			c14,0,21.7,7.3,21.7,16.3c0,6.9-3.9,12.3-11.9,15.2v0.2c7.8,1.4,14.2,7.3,14.2,15.9c0,11.5-10.1,20-26.7,20
			c-8.4,0-15.6-2.2-19.4-4.6L345.4,122.9z"/>
		<path class="st1" d="M458,112c-0.3-8.1-0.6-18-0.6-27.8h-0.3c-2.1,8.6-4.9,18.3-7.5,26.2l-8.2,26.4h-11.9l-7.2-26.2
			c-2.2-7.9-4.5-17.6-6.1-26.4H416c-0.4,9.1-0.7,19.6-1.2,28l-1.2,25.7h-14.2l4.3-67.6h20.4l6.6,22.6c2.1,7.8,4.2,16.3,5.7,24.2h0.3
			c1.9-7.8,4.2-16.8,6.4-24.3l7.2-22.5h20l3.7,67.6h-15L458,112z"/>
	</g>
</g>
<g>
	<rect x="567.4" y="169.4" class="st0" width="177.3" height="102"/>
	<text transform="matrix(1 0 0 1 568.2961 181.4814)" class="st1 st2 st7">Every Saturday &amp; Sunday </text>
	<text transform="matrix(1 0 0 1 572.5961 201.8814)" class="st1 st2 st7">for every winning ticket </text>
	<text transform="matrix(1 0 0 1 604.8961 222.2814)" class="st1 st2 st7">in 1 postcodes</text>
	<rect x="565.4" y="119.2" class="st0" width="177.7" height="58.1"/>
	<text transform="matrix(1 0 0 1 569.9563 152.5397)" class="st1 st4 st8">£30,000</text>
	<g id="Group_1269_11_">
		<g id="_82a514b57319a5e5e360e034506685f1fa50c0bd-3_11_">
			<path id="Path_1458-3_11_" class="st9" d="M655.6,64.7c56.6,0,102.5,46.2,102.5,103.1s-45.9,103.1-102.5,103.1
				s-102.5-46.2-102.5-103.1S599,64.7,655.6,64.7z"/>
		</g>
	</g>
	<g>
		<path class="st1" d="M570.4,177.6c0,2,1.3,2.9,2.8,2.9c1.1,0,1.7-0.2,2.3-0.4l0.3,1.1c-0.5,0.2-1.4,0.5-2.7,0.5
			c-2.5,0-4-1.7-4-4.1c0-2.5,1.5-4.4,3.9-4.4c2.7,0,3.4,2.4,3.4,3.9c0,0.3,0,0.5-0.1,0.7h-5.9V177.6z M574.8,176.6
			c0-1-0.4-2.4-2.1-2.4c-1.5,0-2.2,1.4-2.3,2.4H574.8z"/>
		<path class="st1" d="M578.7,173.3l1.6,4.6c0.3,0.7,0.5,1.4,0.7,2.1h0.1c0.2-0.7,0.4-1.4,0.7-2.1l1.6-4.6h1.6l-3.2,8.2h-1.4
			l-3.1-8.2H578.7z"/>
		<path class="st1" d="M586.9,177.6c0,2,1.3,2.9,2.8,2.9c1.1,0,1.7-0.2,2.3-0.4l0.3,1.1c-0.5,0.2-1.4,0.5-2.7,0.5
			c-2.5,0-4-1.7-4-4.1c0-2.5,1.5-4.4,3.9-4.4c2.7,0,3.4,2.4,3.4,3.9c0,0.3,0,0.5-0.1,0.7h-5.9V177.6z M591.3,176.6
			c0-1-0.4-2.4-2.1-2.4c-1.5,0-2.2,1.4-2.3,2.4H591.3z"/>
		<path class="st1" d="M594.6,175.8c0-1,0-1.8-0.1-2.6h1.3l0.1,1.6h0.1c0.4-1.1,1.3-1.8,2.3-1.8c0.2,0,0.3,0,0.4,0.1v1.4
			c-0.2,0-0.3-0.1-0.5-0.1c-1.1,0-1.8,0.8-2,1.9c0,0.2-0.1,0.4-0.1,0.7v4.4h-1.5V175.8z"/>
		<path class="st1" d="M601.1,173.3l1.8,4.9c0.2,0.5,0.4,1.2,0.5,1.7l0,0c0.2-0.5,0.3-1.1,0.5-1.7l1.6-4.8h1.6l-2.2,5.9
			c-1.1,2.8-1.8,4.3-2.8,5.2c-0.7,0.6-1.5,0.9-1.8,1L600,184c0.4-0.1,0.9-0.4,1.3-0.7c0.4-0.3,0.9-0.9,1.3-1.7
			c0.1-0.2,0.1-0.3,0.1-0.4s0-0.2-0.1-0.4l-3-7.6L601.1,173.3L601.1,173.3z"/>
		<path class="st1" d="M612,179.7c0.7,0.4,1.6,0.7,2.7,0.7c1.5,0,2.4-0.8,2.4-2c0-1.1-0.6-1.7-2.2-2.3c-1.9-0.7-3-1.6-3-3.2
			c0-1.8,1.5-3.1,3.7-3.1c1.2,0,2,0.3,2.5,0.6l-0.4,1.2c-0.4-0.2-1.1-0.5-2.2-0.5c-1.6,0-2.2,0.9-2.2,1.7c0,1.1,0.7,1.6,2.3,2.2
			c1.9,0.7,2.9,1.7,2.9,3.4c0,1.8-1.3,3.3-4,3.3c-1.1,0-2.3-0.3-2.9-0.7L612,179.7z"/>
		<path class="st1" d="M625.2,181.5l-0.1-1H625c-0.5,0.6-1.3,1.2-2.5,1.2c-1.7,0-2.5-1.2-2.5-2.4c0-2,1.8-3.1,4.9-3.1V176
			c0-0.7-0.2-1.9-1.9-1.9c-0.8,0-1.6,0.2-2.1,0.6l-0.3-1c0.7-0.4,1.7-0.7,2.7-0.7c2.5,0,3.1,1.7,3.1,3.4v3.1c0,0.7,0,1.4,0.1,2
			L625.2,181.5L625.2,181.5z M625,177.3c-1.6,0-3.5,0.3-3.5,1.9c0,1,0.6,1.4,1.4,1.4c1.1,0,1.8-0.7,2-1.4c0.1-0.2,0.1-0.3,0.1-0.5
			V177.3z"/>
		<path class="st1" d="M630.6,170.9v2.4h2.1v1.1h-2.1v4.4c0,1,0.3,1.6,1.1,1.6c0.4,0,0.7-0.1,0.9-0.1l0.1,1.1
			c-0.3,0.1-0.7,0.2-1.3,0.2c-0.7,0-1.3-0.2-1.6-0.6c-0.4-0.4-0.6-1.2-0.6-2.1v-4.5h-1.3v-1.1h1.3v-2L630.6,170.9z"/>
		<path class="st1" d="M641.3,179.2c0,0.8,0,1.6,0.1,2.2H640l-0.1-1.3l0,0c-0.4,0.7-1.3,1.5-2.7,1.5c-1.3,0-2.8-0.7-2.8-3.6v-4.8
			h1.5v4.6c0,1.6,0.5,2.6,1.8,2.6c1,0,1.7-0.7,2-1.4c0.1-0.2,0.1-0.5,0.1-0.8v-5h1.5V179.2z"/>
		<path class="st1" d="M643.8,175.8c0-1,0-1.8-0.1-2.6h1.3l0.1,1.6h0.1c0.4-1.1,1.3-1.8,2.3-1.8c0.2,0,0.3,0,0.4,0.1v1.4
			c-0.2,0-0.3-0.1-0.5-0.1c-1.1,0-1.8,0.8-2,1.9c0,0.2-0.1,0.4-0.1,0.7v4.4h-1.5V175.8z"/>
		<path class="st1" d="M656.2,169.4v9.9c0,0.7,0,1.6,0.1,2.1H655l-0.1-1.4l0,0c-0.5,0.9-1.5,1.6-2.8,1.6c-2,0-3.5-1.7-3.5-4.2
			c0-2.7,1.7-4.4,3.7-4.4c1.3,0,2.1,0.6,2.5,1.3l0,0v-4.9L656.2,169.4L656.2,169.4z M654.7,176.6c0-0.2,0-0.4-0.1-0.6
			c-0.2-1-1-1.7-2.2-1.7c-1.5,0-2.5,1.4-2.5,3.2c0,1.7,0.8,3,2.4,3c1,0,1.9-0.7,2.2-1.8c0.1-0.2,0.1-0.4,0.1-0.6L654.7,176.6
			L654.7,176.6z"/>
		<path class="st1" d="M663.3,181.5l-0.1-1h-0.1c-0.5,0.6-1.3,1.2-2.5,1.2c-1.7,0-2.5-1.2-2.5-2.4c0-2,1.8-3.1,4.9-3.1V176
			c0-0.7-0.2-1.9-1.9-1.9c-0.8,0-1.6,0.2-2.1,0.6l-0.3-1c0.7-0.4,1.7-0.7,2.7-0.7c2.5,0,3.1,1.7,3.1,3.4v3.1c0,0.7,0,1.4,0.1,2
			L663.3,181.5L663.3,181.5z M663.1,177.3c-1.6,0-3.5,0.3-3.5,1.9c0,1,0.6,1.4,1.4,1.4c1.1,0,1.8-0.7,2-1.4c0.1-0.2,0.1-0.3,0.1-0.5
			V177.3z"/>
		<path class="st1" d="M667.3,173.3l1.8,4.9c0.2,0.5,0.4,1.2,0.5,1.7l0,0c0.2-0.5,0.3-1.1,0.5-1.7l1.6-4.8h1.6l-2.2,5.9
			c-1.1,2.8-1.8,4.3-2.8,5.2c-0.7,0.6-1.5,0.9-1.8,1l-0.4-1.3c0.4-0.1,0.9-0.4,1.3-0.7c0.4-0.3,0.9-0.9,1.3-1.7
			c0.1-0.2,0.1-0.3,0.1-0.4s0-0.2-0.1-0.4l-3-7.6L667.3,173.3L667.3,173.3z"/>
		<path class="st1" d="M685.6,181.5c-0.3-0.3-0.6-0.6-1.1-1.1c-1,0.9-2.1,1.3-3.3,1.3c-2.2,0-3.5-1.5-3.5-3.2c0-1.6,0.9-2.6,2.2-3.3
			v-0.1c-0.6-0.7-1-1.6-1-2.4c0-1.4,1-2.8,2.9-2.8c1.4,0,2.5,1,2.5,2.4c0,1.2-0.7,2.2-2.5,3.1v0.1c1,1.1,2.1,2.4,2.8,3.2
			c0.5-0.8,0.9-1.9,1.1-3.3h1.4c-0.3,1.8-0.8,3.2-1.6,4.2c0.6,0.6,1.2,1.3,1.9,2L685.6,181.5L685.6,181.5z M683.8,179.5
			c-0.7-0.7-2-2.1-3.2-3.6c-0.6,0.4-1.5,1.1-1.5,2.3c0,1.3,1,2.3,2.3,2.3C682.4,180.5,683.3,180.1,683.8,179.5z M680.3,172.5
			c0,0.8,0.4,1.4,0.9,2.1c1.2-0.7,1.9-1.3,1.9-2.2c0-0.7-0.4-1.5-1.3-1.5C680.8,170.9,680.3,171.6,680.3,172.5z"/>
		<path class="st1" d="M692.1,179.7c0.7,0.4,1.6,0.7,2.7,0.7c1.5,0,2.4-0.8,2.4-2c0-1.1-0.6-1.7-2.2-2.3c-1.9-0.7-3-1.6-3-3.2
			c0-1.8,1.5-3.1,3.7-3.1c1.2,0,2,0.3,2.5,0.6l-0.4,1.2c-0.4-0.2-1.1-0.5-2.2-0.5c-1.6,0-2.2,0.9-2.2,1.7c0,1.1,0.7,1.6,2.3,2.2
			c1.9,0.7,2.9,1.7,2.9,3.4c0,1.8-1.3,3.3-4,3.3c-1.1,0-2.3-0.3-2.9-0.7L692.1,179.7z"/>
		<path class="st1" d="M707.5,179.2c0,0.8,0,1.6,0.1,2.2h-1.3l-0.1-1.3l0,0c-0.4,0.7-1.3,1.5-2.7,1.5c-1.3,0-2.8-0.7-2.8-3.6v-4.8
			h1.5v4.6c0,1.6,0.5,2.6,1.8,2.6c1,0,1.7-0.7,2-1.4c0.1-0.2,0.1-0.5,0.1-0.8v-5h1.5L707.5,179.2L707.5,179.2z"/>
		<path class="st1" d="M710,175.5c0-0.8,0-1.5-0.1-2.2h1.3l0.1,1.4l0,0c0.4-0.8,1.4-1.5,2.7-1.5c1.1,0,2.9,0.7,2.9,3.5v4.9h-1.5
			v-4.7c0-1.3-0.5-2.4-1.9-2.4c-1,0-1.8,0.7-2,1.5c-0.1,0.2-0.1,0.4-0.1,0.7v4.9H710V175.5z"/>
		<path class="st1" d="M726.6,169.4v9.9c0,0.7,0,1.6,0.1,2.1h-1.3l-0.1-1.4l0,0c-0.5,0.9-1.5,1.6-2.8,1.6c-2,0-3.5-1.7-3.5-4.2
			c0-2.7,1.7-4.4,3.7-4.4c1.3,0,2.1,0.6,2.5,1.3l0,0v-4.9L726.6,169.4L726.6,169.4z M725.1,176.6c0-0.2,0-0.4-0.1-0.6
			c-0.2-1-1-1.7-2.2-1.7c-1.5,0-2.5,1.4-2.5,3.2c0,1.7,0.8,3,2.4,3c1,0,1.9-0.7,2.2-1.8c0.1-0.2,0.1-0.4,0.1-0.6L725.1,176.6
			L725.1,176.6z"/>
		<path class="st1" d="M733.6,181.5l-0.1-1h-0.1c-0.5,0.6-1.3,1.2-2.5,1.2c-1.7,0-2.5-1.2-2.5-2.4c0-2,1.8-3.1,4.9-3.1V176
			c0-0.7-0.2-1.9-1.9-1.9c-0.8,0-1.6,0.2-2.1,0.6l-0.3-1c0.7-0.4,1.7-0.7,2.7-0.7c2.5,0,3.1,1.7,3.1,3.4v3.1c0,0.7,0,1.4,0.1,2
			L733.6,181.5L733.6,181.5z M733.4,177.3c-1.6,0-3.5,0.3-3.5,1.9c0,1,0.6,1.4,1.4,1.4c1.1,0,1.8-0.7,2-1.4c0.1-0.2,0.1-0.3,0.1-0.5
			V177.3z"/>
		<path class="st1" d="M737.7,173.3l1.8,4.9c0.2,0.5,0.4,1.2,0.5,1.7l0,0c0.2-0.5,0.3-1.1,0.5-1.7l1.6-4.8h1.6l-2.2,5.9
			c-1.1,2.8-1.8,4.3-2.8,5.2c-0.7,0.6-1.5,0.9-1.8,1l-0.4-1.3c0.4-0.1,0.9-0.4,1.3-0.7c0.4-0.3,0.9-0.9,1.3-1.7
			c0.1-0.2,0.1-0.3,0.1-0.4s0-0.2-0.1-0.4l-3-7.6L737.7,173.3L737.7,173.3z"/>
		<path class="st1" d="M573.9,201.9v-7.1h-1.2v-1.1h1.2v-0.4c0-1.2,0.3-2.2,1-2.9c0.6-0.5,1.3-0.8,2-0.8c0.5,0,1,0.1,1.3,0.2
			L578,191c-0.2-0.1-0.5-0.2-1-0.2c-1.3,0-1.6,1.1-1.6,2.4v0.4h2v1.1h-2v7.1L573.9,201.9L573.9,201.9z"/>
		<path class="st1" d="M586,197.7c0,3-2.1,4.4-4.1,4.4c-2.2,0-3.9-1.6-3.9-4.2c0-2.8,1.8-4.4,4.1-4.4
			C584.4,193.5,586,195.2,586,197.7z M579.5,197.8c0,1.8,1,3.2,2.5,3.2c1.4,0,2.5-1.3,2.5-3.2c0-1.4-0.7-3.2-2.5-3.2
			S579.5,196.2,579.5,197.8z"/>
		<path class="st1" d="M587.9,196.2c0-1,0-1.8-0.1-2.6h1.3l0.1,1.6h0.1c0.4-1.1,1.3-1.8,2.3-1.8c0.2,0,0.3,0,0.4,0.1v1.4
			c-0.2,0-0.3-0.1-0.5-0.1c-1.1,0-1.8,0.8-2,1.9c0,0.2-0.1,0.4-0.1,0.7v4.4h-1.5V196.2z"/>
		<path class="st1" d="M597.9,198c0,2,1.3,2.9,2.8,2.9c1.1,0,1.7-0.2,2.3-0.4l0.3,1.1c-0.5,0.2-1.4,0.5-2.7,0.5c-2.5,0-4-1.7-4-4.1
			s1.5-4.4,3.9-4.4c2.7,0,3.4,2.4,3.4,3.9c0,0.3,0,0.5-0.1,0.7h-5.9V198z M602.3,197c0-1-0.4-2.4-2.1-2.4c-1.5,0-2.2,1.4-2.3,2.4
			H602.3z"/>
		<path class="st1" d="M606.1,193.7l1.6,4.6c0.3,0.7,0.5,1.4,0.7,2.1h0.1c0.2-0.7,0.4-1.4,0.7-2.1l1.6-4.6h1.6l-3.2,8.2h-1.4
			l-3.1-8.2H606.1z"/>
		<path class="st1" d="M614.4,198c0,2,1.3,2.9,2.8,2.9c1.1,0,1.7-0.2,2.3-0.4l0.3,1.1c-0.5,0.2-1.4,0.5-2.7,0.5c-2.5,0-4-1.7-4-4.1
			s1.5-4.4,3.9-4.4c2.7,0,3.4,2.4,3.4,3.9c0,0.3,0,0.5-0.1,0.7h-5.9V198z M618.8,197c0-1-0.4-2.4-2.1-2.4c-1.5,0-2.2,1.4-2.3,2.4
			H618.8z"/>
		<path class="st1" d="M622.1,196.2c0-1,0-1.8-0.1-2.6h1.3l0.1,1.6h0.1c0.4-1.1,1.3-1.8,2.3-1.8c0.2,0,0.3,0,0.4,0.1v1.4
			c-0.2,0-0.3-0.1-0.5-0.1c-1.1,0-1.8,0.8-2,1.9c0,0.2-0.1,0.4-0.1,0.7v4.4h-1.5V196.2z"/>
		<path class="st1" d="M628.6,193.7l1.8,4.9c0.2,0.5,0.4,1.2,0.5,1.7l0,0c0.2-0.5,0.3-1.1,0.5-1.7l1.6-4.8h1.6l-2.2,5.9
			c-1.1,2.8-1.8,4.3-2.8,5.2c-0.7,0.6-1.5,0.9-1.8,1l-0.4-1.3c0.4-0.1,0.9-0.4,1.3-0.7c0.4-0.3,0.9-0.9,1.3-1.7
			c0.1-0.2,0.1-0.3,0.1-0.4s0-0.2-0.1-0.4l-3-7.6L628.6,193.7L628.6,193.7z"/>
		<path class="st1" d="M640.3,193.7l1.1,4.2c0.2,0.9,0.5,1.8,0.6,2.6h0.1c0.2-0.8,0.5-1.7,0.7-2.6l1.3-4.2h1.3l1.3,4.1
			c0.3,1,0.5,1.9,0.7,2.7h0.1c0.1-0.8,0.4-1.7,0.6-2.7l1.2-4.1h1.5l-2.7,8.2h-1.4l-1.3-3.9c-0.3-0.9-0.5-1.7-0.7-2.7l0,0
			c-0.2,1-0.5,1.8-0.7,2.7l-1.3,3.9h-1.4l-2.5-8.2H640.3z"/>
		<path class="st1" d="M653.8,191.3c0,0.5-0.4,0.9-1,0.9c-0.5,0-0.9-0.4-0.9-0.9s0.4-0.9,0.9-0.9
			C653.5,190.4,653.8,190.8,653.8,191.3z M652.2,201.9v-8.2h1.5v8.2H652.2z"/>
		<path class="st1" d="M656.2,195.9c0-0.8,0-1.5-0.1-2.2h1.3l0.1,1.4l0,0c0.4-0.8,1.4-1.5,2.7-1.5c1.1,0,2.9,0.7,2.9,3.5v4.9h-1.5
			v-4.7c0-1.3-0.5-2.4-1.9-2.4c-1,0-1.8,0.7-2,1.5c-0.1,0.2-0.1,0.4-0.1,0.7v4.9h-1.5L656.2,195.9L656.2,195.9z"/>
		<path class="st1" d="M665.6,195.9c0-0.8,0-1.5-0.1-2.2h1.3l0.1,1.4l0,0c0.4-0.8,1.4-1.5,2.7-1.5c1.1,0,2.9,0.7,2.9,3.5v4.9H671
			v-4.7c0-1.3-0.5-2.4-1.9-2.4c-1,0-1.8,0.7-2,1.5c-0.1,0.2-0.1,0.4-0.1,0.7v4.9h-1.5L665.6,195.9L665.6,195.9z"/>
		<path class="st1" d="M676.7,191.3c0,0.5-0.4,0.9-1,0.9c-0.5,0-0.9-0.4-0.9-0.9s0.4-0.9,0.9-0.9
			C676.3,190.4,676.7,190.8,676.7,191.3z M675,201.9v-8.2h1.5v8.2H675z"/>
		<path class="st1" d="M679,195.9c0-0.8,0-1.5-0.1-2.2h1.3l0.1,1.4l0,0c0.4-0.8,1.4-1.5,2.7-1.5c1.1,0,2.9,0.7,2.9,3.5v4.9h-1.5
			v-4.7c0-1.3-0.5-2.4-1.9-2.4c-1,0-1.8,0.7-2,1.5c-0.1,0.2-0.1,0.4-0.1,0.7v4.9H679V195.9z"/>
		<path class="st1" d="M695.5,193.7c0,0.6-0.1,1.3-0.1,2.3v4.8c0,1.9-0.4,3-1.2,3.8c-0.8,0.7-2,1-3,1s-2.1-0.2-2.7-0.7l0.4-1.1
			c0.5,0.3,1.4,0.6,2.4,0.6c1.5,0,2.7-0.8,2.7-2.9v-0.9l0,0c-0.5,0.8-1.3,1.4-2.6,1.4c-2,0-3.5-1.7-3.5-4c0-2.8,1.8-4.4,3.7-4.4
			c1.4,0,2.2,0.7,2.6,1.4l0,0l0.1-1.2h1.2L695.5,193.7L695.5,193.7z M694,196.9c0-0.3,0-0.5-0.1-0.7c-0.3-0.9-1-1.6-2.1-1.6
			c-1.4,0-2.4,1.2-2.4,3.1c0,1.6,0.8,3,2.4,3c0.9,0,1.8-0.6,2.1-1.5c0.1-0.3,0.1-0.5,0.1-0.8V196.9z"/>
		<path class="st1" d="M703.3,191.3v2.4h2.1v1.1h-2.1v4.4c0,1,0.3,1.6,1.1,1.6c0.4,0,0.7-0.1,0.9-0.1l0.1,1.1
			c-0.3,0.1-0.7,0.2-1.3,0.2c-0.7,0-1.3-0.2-1.6-0.6c-0.4-0.4-0.6-1.2-0.6-2.1v-4.5h-1.3v-1.1h1.3v-2L703.3,191.3z"/>
		<path class="st1" d="M708.8,191.3c0,0.5-0.4,0.9-1,0.9c-0.5,0-0.9-0.4-0.9-0.9s0.4-0.9,0.9-0.9
			C708.5,190.4,708.8,190.8,708.8,191.3z M707.2,201.9v-8.2h1.5v8.2H707.2z"/>
		<path class="st1" d="M717,201.6c-0.4,0.2-1.3,0.5-2.4,0.5c-2.5,0-4.1-1.7-4.1-4.2s1.7-4.4,4.4-4.4c0.9,0,1.7,0.2,2.1,0.4l-0.3,1.2
			c-0.4-0.2-0.9-0.4-1.7-0.4c-1.9,0-2.9,1.4-2.9,3.1c0,1.9,1.2,3.1,2.9,3.1c0.8,0,1.4-0.2,1.8-0.4L717,201.6z"/>
		<path class="st1" d="M720.2,197.4L720.2,197.4c0.2-0.3,0.5-0.6,0.8-0.9l2.4-2.8h1.8L722,197l3.6,4.8h-1.8l-2.8-3.9l-0.8,0.9v3.1
			h-1.5v-12.1h1.5V197.4z"/>
		<path class="st1" d="M727.6,198c0,2,1.3,2.9,2.8,2.9c1.1,0,1.7-0.2,2.3-0.4l0.3,1.1c-0.5,0.2-1.4,0.5-2.7,0.5c-2.5,0-4-1.7-4-4.1
			s1.5-4.4,3.9-4.4c2.7,0,3.4,2.4,3.4,3.9c0,0.3,0,0.5-0.1,0.7h-5.9V198z M732,197c0-1-0.4-2.4-2.1-2.4c-1.5,0-2.2,1.4-2.3,2.4H732z
			"/>
		<path class="st1" d="M737.1,191.3v2.4h2.1v1.1h-2.1v4.4c0,1,0.3,1.6,1.1,1.6c0.4,0,0.7-0.1,0.9-0.1l0.1,1.1
			c-0.3,0.1-0.7,0.2-1.3,0.2c-0.7,0-1.3-0.2-1.6-0.6c-0.4-0.4-0.6-1.2-0.6-2.1v-4.5h-1.3v-1.1h1.3v-2L737.1,191.3z"/>
		<path class="st1" d="M609.1,211.7c0,0.5-0.4,0.9-1,0.9c-0.5,0-0.9-0.4-0.9-0.9s0.4-0.9,0.9-0.9
			C608.7,210.8,609.1,211.2,609.1,211.7z M607.4,222.3v-8.2h1.5v8.2H607.4z"/>
		<path class="st1" d="M611.4,216.3c0-0.8,0-1.5-0.1-2.2h1.3l0.1,1.4l0,0c0.4-0.8,1.4-1.5,2.7-1.5c1.1,0,2.9,0.7,2.9,3.5v4.9h-1.5
			v-4.7c0-1.3-0.5-2.4-1.9-2.4c-1,0-1.8,0.7-2,1.5c-0.1,0.2-0.1,0.4-0.1,0.7v4.9h-1.5L611.4,216.3L611.4,216.3z"/>
		<path class="st1" d="M627.2,213.5L627.2,213.5l-2.1,1l-0.4-1.9l2.9-1.4h2.1v11h-2.5V213.5z"/>
		<path class="st1" d="M637.1,216.8c0-1.1,0-2-0.1-2.8h2.2l0.1,1.2l0,0c0.6-0.9,1.6-1.3,2.8-1.3c1.8,0,3.5,1.6,3.5,4.2
			c0,3-1.9,4.5-3.8,4.5c-1,0-1.8-0.4-2.2-1l0,0v4.1H637L637.1,216.8L637.1,216.8z M639.7,218.7c0,0.2,0,0.4,0.1,0.5
			c0.2,0.7,0.8,1.2,1.5,1.2c1.1,0,1.8-0.9,1.8-2.3c0-1.3-0.6-2.3-1.8-2.3c-0.7,0-1.4,0.5-1.5,1.3c0,0.1-0.1,0.3-0.1,0.5V218.7z"/>
		<path class="st1" d="M655.5,218c0,3-2.2,4.4-4.4,4.4c-2.4,0-4.3-1.6-4.3-4.3s1.8-4.4,4.4-4.4C653.8,213.8,655.5,215.5,655.5,218z
			 M649.5,218.1c0,1.4,0.6,2.5,1.7,2.5c1,0,1.6-1,1.6-2.5c0-1.2-0.5-2.5-1.6-2.5C649.9,215.6,649.5,216.9,649.5,218.1z"/>
		<path class="st1" d="M657.1,220c0.5,0.3,1.5,0.6,2.2,0.6c0.8,0,1.1-0.3,1.1-0.7s-0.3-0.6-1.2-1c-1.7-0.6-2.4-1.5-2.4-2.5
			c0-1.5,1.3-2.7,3.4-2.7c1,0,1.8,0.2,2.3,0.5L662,216c-0.4-0.2-1.1-0.5-1.8-0.5c-0.6,0-1,0.3-1,0.7s0.3,0.6,1.3,1
			c1.6,0.5,2.2,1.3,2.3,2.6c0,1.5-1.2,2.7-3.6,2.7c-1.1,0-2.1-0.2-2.7-0.6L657.1,220z"/>
		<path class="st1" d="M667.4,211.6v2.4h1.9v1.9h-1.9v3c0,1,0.2,1.5,1,1.5c0.3,0,0.6,0,0.8-0.1v2c-0.3,0.1-1,0.2-1.7,0.2
			c-0.8,0-1.5-0.3-1.9-0.7c-0.5-0.5-0.7-1.3-0.7-2.5v-3.4h-1.1V214h1.1v-1.8L667.4,211.6z"/>
		<path class="st1" d="M676.9,222.1c-0.5,0.2-1.3,0.4-2.3,0.4c-2.7,0-4.4-1.6-4.4-4.2c0-2.4,1.7-4.4,4.8-4.4c0.7,0,1.4,0.1,2,0.3
			l-0.4,1.9c-0.3-0.1-0.8-0.3-1.4-0.3c-1.4,0-2.2,1-2.2,2.3c0,1.5,1,2.3,2.3,2.3c0.6,0,1.1-0.1,1.5-0.3L676.9,222.1z"/>
		<path class="st1" d="M686.3,218c0,3-2.2,4.4-4.4,4.4c-2.4,0-4.3-1.6-4.3-4.3s1.8-4.4,4.4-4.4C684.6,213.8,686.3,215.5,686.3,218z
			 M680.3,218.1c0,1.4,0.6,2.5,1.7,2.5c1,0,1.6-1,1.6-2.5c0-1.2-0.5-2.5-1.6-2.5C680.8,215.6,680.3,216.9,680.3,218.1z"/>
		<path class="st1" d="M696,210.2v9.6c0,0.9,0,1.9,0.1,2.5h-2.3l-0.1-1.2l0,0c-0.5,0.9-1.5,1.4-2.6,1.4c-2,0-3.6-1.7-3.6-4.3
			c0-2.8,1.7-4.4,3.7-4.4c1,0,1.8,0.4,2.2,0.9l0,0v-4.5H696z M693.4,217.5c0-0.1,0-0.3,0-0.5c-0.2-0.7-0.7-1.3-1.5-1.3
			c-1.2,0-1.8,1.1-1.8,2.4c0,1.4,0.7,2.3,1.8,2.3c0.7,0,1.3-0.5,1.5-1.2c0.1-0.2,0.1-0.4,0.1-0.6L693.4,217.5L693.4,217.5z"/>
		<path class="st1" d="M700.1,218.9c0.1,1.1,1.1,1.6,2.3,1.6c0.9,0,1.6-0.1,2.3-0.3l0.3,1.8c-0.8,0.3-1.9,0.5-3,0.5
			c-2.8,0-4.4-1.6-4.4-4.2c0-2.1,1.3-4.4,4.2-4.4c2.7,0,3.7,2.1,3.7,4.1c0,0.4-0.1,0.8-0.1,1h-5.3V218.9z M703.1,217.2
			c0-0.6-0.3-1.7-1.5-1.7c-1.1,0-1.5,1-1.6,1.7H703.1z"/>
	</g>
	<g>
		<path class="st1" d="M572.4,152.5v-3.8c2.5-1,5.3-3.7,5.3-6.9c0-0.7,0-1.2-0.1-1.9H573v-4.8h3.8c-0.2-1.2-0.4-2.5-0.4-3.8
			c0-5.9,4.3-9.8,10.6-9.8c2.6,0,4.5,0.6,5.5,1.1l-1.2,5.4c-0.9-0.5-2.2-0.8-3.9-0.8c-3.3,0-4.4,2.2-4.4,4.4c0,1.2,0.1,2.3,0.4,3.5
			h6.4v4.8H584c0,1.2,0,2.3-0.4,3.3c-0.4,1.2-1.2,2.3-2.3,3.3v0.1h12.5v5.8L572.4,152.5L572.4,152.5z"/>
		<path class="st1" d="M599.3,145.5c1.3,0.7,4.2,1.9,7.1,1.9c3.7,0,5.6-1.8,5.6-4.1c0-3-3-4.4-6.2-4.4h-2.9v-5.1h2.8
			c2.4,0,5.5-0.9,5.5-3.5c0-1.8-1.5-3.2-4.5-3.2c-2.5,0-5.1,1.1-6.4,1.8l-1.5-5.2c1.8-1.2,5.5-2.3,9.4-2.3c6.5,0,10.2,3.4,10.2,7.6
			c0,3.2-1.8,5.8-5.6,7.1v0.1c3.7,0.7,6.6,3.4,6.6,7.4c0,5.4-4.7,9.4-12.5,9.4c-3.9,0-7.3-1-9.1-2.2L599.3,145.5z"/>
		<path class="st1" d="M646.7,137.1c0,9.4-3.8,15.9-11.6,15.9c-7.9,0-11.4-7.1-11.4-15.7c0-8.8,3.8-15.8,11.7-15.8
			C643.5,121.5,646.7,128.8,646.7,137.1z M630.8,137.3c0,7,1.6,10.3,4.4,10.3c2.8,0,4.3-3.5,4.3-10.4c0-6.8-1.5-10.3-4.3-10.3
			C632.6,126.9,630.8,130.2,630.8,137.3z"/>
		<path class="st1" d="M648.3,158.1c1.5-4.2,2.7-9.1,3.4-13.3l7.3-0.5c-1.6,4.8-3.7,9.7-5.9,13.4L648.3,158.1z"/>
		<path class="st1" d="M685,137.1c0,9.4-3.8,15.9-11.6,15.9c-7.9,0-11.4-7.1-11.4-15.7c0-8.8,3.8-15.8,11.7-15.8
			C681.8,121.5,685,128.8,685,137.1z M669.1,137.3c0,7,1.6,10.3,4.4,10.3c2.8,0,4.3-3.5,4.3-10.4c0-6.8-1.5-10.3-4.3-10.3
			C670.9,126.9,669.1,130.2,669.1,137.3z"/>
		<path class="st1" d="M711,137.1c0,9.4-3.8,15.9-11.6,15.9c-7.9,0-11.4-7.1-11.4-15.7c0-8.8,3.8-15.8,11.7-15.8
			C707.9,121.5,711,128.8,711,137.1z M695.2,137.3c0,7,1.6,10.3,4.4,10.3s4.3-3.5,4.3-10.4c0-6.8-1.5-10.3-4.3-10.3
			C696.9,126.9,695.2,130.2,695.2,137.3z"/>
		<path class="st1" d="M737.1,137.1c0,9.4-3.8,15.9-11.6,15.9c-7.9,0-11.4-7.1-11.4-15.7c0-8.8,3.8-15.8,11.7-15.8
			C733.9,121.5,737.1,128.8,737.1,137.1z M721.3,137.3c0,7,1.6,10.3,4.4,10.3c2.8,0,4.3-3.5,4.3-10.4c0-6.8-1.5-10.3-4.3-10.3
			C723,126.9,721.2,130.2,721.3,137.3z"/>
	</g>
</g>
<g id="Group_1269_12_">
	<g id="_82a514b57319a5e5e360e034506685f1fa50c0bd-3_12_">
		<path id="Path_1458-3_12_" class="st10" d="M109.8,64.7c56.6,0,102.5,46.2,102.5,103.1s-45.9,103.1-102.5,103.1
			S7.3,224.7,7.3,167.8S53.2,64.7,109.8,64.7z"/>
	</g>
</g>
<g>
	<path class="st1" d="M38,152.5v-3.8c2.5-1,5.3-3.7,5.3-6.9c0-0.7,0-1.2-0.1-1.9h-4.6v-4.8h3.8c-0.2-1.2-0.4-2.5-0.4-3.8
		c0-5.9,4.3-9.8,10.6-9.8c2.6,0,4.5,0.6,5.5,1.1l-1.2,5.4c-0.9-0.5-2.2-0.8-3.9-0.8c-3.3,0-4.4,2.2-4.4,4.4c0,1.2,0.1,2.3,0.4,3.5
		h6.4v4.8h-5.8c0,1.2,0,2.3-0.4,3.3c-0.4,1.2-1.2,2.3-2.3,3.3v0.1h12.5v5.8L38,152.5L38,152.5z"/>
	<path class="st1" d="M72.7,128.3L72.7,128.3l-5.9,2.8l-1.2-5.4l8.1-3.8h5.9v30.5h-6.9V128.3z"/>
	<path class="st1" d="M87.8,158.1c1.5-4.2,2.7-9.1,3.4-13.3l7.3-0.5c-1.6,4.8-3.7,9.7-5.9,13.4L87.8,158.1z"/>
	<path class="st1" d="M124.5,137.1c0,9.4-3.8,15.9-11.6,15.9c-7.9,0-11.4-7.1-11.4-15.7c0-8.8,3.8-15.8,11.7-15.8
		C121.3,121.5,124.5,128.8,124.5,137.1z M108.6,137.3c0,7,1.6,10.3,4.4,10.3s4.3-3.5,4.3-10.4c0-6.8-1.5-10.3-4.3-10.3
		C110.4,126.9,108.6,130.2,108.6,137.3z"/>
	<path class="st1" d="M150.6,137.1c0,9.4-3.8,15.9-11.6,15.9c-7.9,0-11.4-7.1-11.4-15.7c0-8.8,3.8-15.8,11.7-15.8
		C147.4,121.5,150.6,128.8,150.6,137.1z M134.7,137.3c0,7,1.6,10.3,4.4,10.3c2.8,0,4.3-3.5,4.3-10.4c0-6.8-1.5-10.3-4.3-10.3
		C136.5,126.9,134.7,130.2,134.7,137.3z"/>
	<path class="st1" d="M176.7,137.1c0,9.4-3.8,15.9-11.6,15.9c-7.9,0-11.4-7.1-11.4-15.7c0-8.8,3.8-15.8,11.7-15.8
		C173.5,121.5,176.7,128.8,176.7,137.1z M160.8,137.3c0,7,1.6,10.3,4.4,10.3s4.3-3.5,4.3-10.4c0-6.8-1.5-10.3-4.3-10.3
		C162.6,126.9,160.8,130.2,160.8,137.3z"/>
</g>
<g>
	<path class="st1" d="M31.9,169v10.5c0,0.8,0,1.7,0.1,2.3h-1.4l-0.1-1.5h0c-0.5,1-1.5,1.7-3,1.7c-2.1,0-3.7-1.8-3.7-4.4
		c0-2.9,1.8-4.7,3.9-4.7c1.3,0,2.2,0.6,2.6,1.3h0V169H31.9z M30.3,176.6c0-0.2,0-0.5-0.1-0.7c-0.2-1-1.1-1.8-2.3-1.8
		c-1.6,0-2.6,1.4-2.6,3.4c0,1.8,0.9,3.2,2.6,3.2c1.1,0,2-0.7,2.3-1.9c0.1-0.2,0.1-0.4,0.1-0.7V176.6z"/>
	<path class="st1" d="M39.4,181.8l-0.1-1.1h-0.1c-0.5,0.7-1.4,1.3-2.7,1.3c-1.8,0-2.7-1.2-2.7-2.5c0-2.1,1.9-3.3,5.2-3.2v-0.2
		c0-0.7-0.2-2-2-2c-0.8,0-1.7,0.3-2.3,0.6l-0.4-1c0.7-0.5,1.8-0.8,2.9-0.8c2.7,0,3.3,1.8,3.3,3.6v3.3c0,0.8,0,1.5,0.1,2.1H39.4z
		 M39.1,177.4c-1.7,0-3.7,0.3-3.7,2c0,1,0.7,1.5,1.5,1.5c1.1,0,1.9-0.7,2.1-1.5c0.1-0.2,0.1-0.3,0.1-0.5V177.4z"/>
	<path class="st1" d="M45,170.7c0,0.5-0.4,1-1,1c-0.6,0-1-0.4-1-1c0-0.6,0.4-1,1-1C44.6,169.7,45,170.1,45,170.7z M43.2,181.8v-8.7
		h1.6v8.7H43.2z"/>
	<path class="st1" d="M47.4,169H49v12.8h-1.6V169z"/>
	<path class="st1" d="M52.3,173.1l1.9,5.1c0.2,0.6,0.4,1.3,0.6,1.8h0c0.2-0.5,0.3-1.2,0.6-1.8l1.7-5.1h1.7l-2.4,6.2
		c-1.1,3-1.9,4.5-3,5.5c-0.8,0.7-1.5,1-1.9,1l-0.4-1.3c0.4-0.1,0.9-0.4,1.4-0.8c0.4-0.3,1-1,1.3-1.8c0.1-0.2,0.1-0.3,0.1-0.4
		s0-0.2-0.1-0.4l-3.2-8H52.3z"/>
	<path class="st1" d="M64.1,181.8v-7.5h-1.2v-1.2h1.2v-0.4c0-1.2,0.3-2.3,1-3c0.6-0.6,1.4-0.8,2.1-0.8c0.6,0,1,0.1,1.4,0.3l-0.2,1.2
		c-0.2-0.1-0.6-0.2-1-0.2c-1.4,0-1.7,1.2-1.7,2.5v0.5h2.1v1.2h-2.1v7.5H64.1z"/>
	<path class="st1" d="M76.9,177.4c0,3.2-2.2,4.6-4.3,4.6c-2.4,0-4.2-1.7-4.2-4.5c0-2.9,1.9-4.6,4.3-4.6
		C75.2,172.9,76.9,174.7,76.9,177.4z M70,177.5c0,1.9,1.1,3.3,2.6,3.3c1.5,0,2.6-1.4,2.6-3.4c0-1.5-0.7-3.3-2.6-3.3
		C70.8,174.1,70,175.8,70,177.5z"/>
	<path class="st1" d="M78.9,175.8c0-1,0-1.9-0.1-2.7h1.4l0.1,1.7h0.1c0.4-1.2,1.4-1.9,2.4-1.9c0.2,0,0.3,0,0.5,0.1v1.5
		c-0.2,0-0.3-0.1-0.5-0.1c-1.1,0-1.9,0.8-2.1,2c0,0.2-0.1,0.5-0.1,0.7v4.6h-1.6V175.8z"/>
	<path class="st1" d="M89.5,177.7c0,2.1,1.4,3,3,3c1.1,0,1.8-0.2,2.4-0.5l0.3,1.1c-0.6,0.3-1.5,0.5-2.9,0.5c-2.7,0-4.3-1.8-4.3-4.4
		s1.5-4.7,4.1-4.7c2.8,0,3.6,2.5,3.6,4.1c0,0.3,0,0.6-0.1,0.7H89.5z M94.1,176.6c0-1-0.4-2.6-2.2-2.6c-1.6,0-2.3,1.5-2.4,2.6H94.1z"
		/>
	<path class="st1" d="M98.2,173.1l1.7,4.9c0.3,0.8,0.5,1.5,0.7,2.2h0.1c0.2-0.7,0.5-1.4,0.7-2.2l1.7-4.9h1.7l-3.4,8.7h-1.5l-3.3-8.7
		H98.2z"/>
	<path class="st1" d="M107,177.7c0,2.1,1.4,3,3,3c1.1,0,1.8-0.2,2.4-0.5l0.3,1.1c-0.6,0.3-1.5,0.5-2.9,0.5c-2.7,0-4.3-1.8-4.3-4.4
		s1.5-4.7,4.1-4.7c2.8,0,3.6,2.5,3.6,4.1c0,0.3,0,0.6-0.1,0.7H107z M111.6,176.6c0-1-0.4-2.6-2.2-2.6c-1.6,0-2.3,1.5-2.4,2.6H111.6z
		"/>
	<path class="st1" d="M115.1,175.8c0-1,0-1.9-0.1-2.7h1.4l0.1,1.7h0.1c0.4-1.2,1.4-1.9,2.4-1.9c0.2,0,0.3,0,0.5,0.1v1.5
		c-0.2,0-0.3-0.1-0.5-0.1c-1.1,0-1.9,0.8-2.1,2c0,0.2-0.1,0.5-0.1,0.7v4.6h-1.6V175.8z"/>
	<path class="st1" d="M122,173.1l1.9,5.1c0.2,0.6,0.4,1.3,0.6,1.8h0c0.2-0.5,0.3-1.2,0.6-1.8l1.7-5.1h1.7l-2.4,6.2
		c-1.1,3-1.9,4.5-3,5.5c-0.8,0.7-1.5,1-1.9,1l-0.4-1.3c0.4-0.1,0.9-0.4,1.4-0.8c0.4-0.3,1-1,1.3-1.8c0.1-0.2,0.1-0.3,0.1-0.4
		s0-0.2-0.1-0.4l-3.2-8H122z"/>
	<path class="st1" d="M134.4,173.1l1.2,4.4c0.3,1,0.5,1.9,0.6,2.8h0.1c0.2-0.9,0.5-1.8,0.8-2.8l1.4-4.4h1.3l1.4,4.4
		c0.3,1,0.6,2,0.8,2.8h0.1c0.1-0.9,0.4-1.8,0.7-2.8l1.2-4.4h1.6l-2.8,8.7h-1.4l-1.3-4.2c-0.3-1-0.6-1.8-0.8-2.9h0
		c-0.2,1-0.5,1.9-0.8,2.9l-1.4,4.1h-1.4l-2.6-8.7H134.4z"/>
	<path class="st1" d="M148.7,170.7c0,0.5-0.4,1-1,1c-0.6,0-1-0.4-1-1c0-0.6,0.4-1,1-1C148.4,169.7,148.7,170.1,148.7,170.7z
		 M147,181.8v-8.7h1.6v8.7H147z"/>
	<path class="st1" d="M151.2,175.5c0-0.9,0-1.6-0.1-2.4h1.4l0.1,1.4h0c0.4-0.8,1.4-1.6,2.9-1.6c1.2,0,3.1,0.7,3.1,3.7v5.2H157v-5
		c0-1.4-0.5-2.6-2-2.6c-1,0-1.9,0.7-2.1,1.6c-0.1,0.2-0.1,0.5-0.1,0.7v5.2h-1.6V175.5z"/>
	<path class="st1" d="M161.2,175.5c0-0.9,0-1.6-0.1-2.4h1.4l0.1,1.4h0c0.4-0.8,1.4-1.6,2.9-1.6c1.2,0,3.1,0.7,3.1,3.7v5.2H167v-5
		c0-1.4-0.5-2.6-2-2.6c-1,0-1.9,0.7-2.1,1.6c-0.1,0.2-0.1,0.5-0.1,0.7v5.2h-1.6V175.5z"/>
	<path class="st1" d="M172.9,170.7c0,0.5-0.4,1-1,1c-0.6,0-1-0.4-1-1c0-0.6,0.4-1,1-1C172.6,169.7,172.9,170.1,172.9,170.7z
		 M171.2,181.8v-8.7h1.6v8.7H171.2z"/>
	<path class="st1" d="M175.4,175.5c0-0.9,0-1.6-0.1-2.4h1.4l0.1,1.4h0c0.4-0.8,1.4-1.6,2.9-1.6c1.2,0,3.1,0.7,3.1,3.7v5.2h-1.6v-5
		c0-1.4-0.5-2.6-2-2.6c-1,0-1.9,0.7-2.1,1.6c-0.1,0.2-0.1,0.5-0.1,0.7v5.2h-1.6V175.5z"/>
	<path class="st1" d="M192.9,173.1c0,0.6-0.1,1.3-0.1,2.4v5.1c0,2-0.4,3.2-1.2,4c-0.8,0.8-2.1,1-3.2,1c-1,0-2.2-0.3-2.9-0.7l0.4-1.2
		c0.6,0.4,1.5,0.7,2.6,0.7c1.6,0,2.8-0.8,2.8-3v-1h0c-0.5,0.8-1.4,1.5-2.8,1.5c-2.2,0-3.7-1.8-3.7-4.2c0-3,1.9-4.6,3.9-4.6
		c1.5,0,2.3,0.8,2.7,1.5h0l0.1-1.3H192.9z M191.2,176.5c0-0.3,0-0.5-0.1-0.7c-0.3-0.9-1.1-1.7-2.2-1.7c-1.5,0-2.6,1.3-2.6,3.3
		c0,1.7,0.9,3.1,2.6,3.1c1,0,1.9-0.6,2.2-1.6c0.1-0.3,0.1-0.6,0.1-0.8V176.5z"/>
	<path class="st1" d="M27.3,192.2v2.5h2.3v1.2h-2.3v4.7c0,1.1,0.3,1.7,1.2,1.7c0.4,0,0.7-0.1,0.9-0.1l0.1,1.2
		c-0.3,0.1-0.8,0.2-1.4,0.2c-0.7,0-1.3-0.2-1.7-0.7c-0.5-0.5-0.6-1.2-0.6-2.3v-4.8h-1.4v-1.2h1.4v-2.1L27.3,192.2z"/>
	<path class="st1" d="M33.1,192.3c0,0.5-0.4,1-1,1c-0.6,0-1-0.4-1-1c0-0.6,0.4-1,1-1C32.7,191.3,33.1,191.7,33.1,192.3z M31.4,203.4
		v-8.7h1.6v8.7H31.4z"/>
	<path class="st1" d="M41.8,203.1c-0.4,0.2-1.3,0.5-2.5,0.5c-2.6,0-4.3-1.8-4.3-4.4c0-2.7,1.8-4.6,4.7-4.6c0.9,0,1.8,0.2,2.2,0.5
		l-0.4,1.2c-0.4-0.2-1-0.4-1.8-0.4c-2,0-3.1,1.5-3.1,3.3c0,2,1.3,3.3,3,3.3c0.9,0,1.5-0.2,1.9-0.4L41.8,203.1z"/>
	<path class="st1" d="M45.2,198.7L45.2,198.7c0.3-0.3,0.6-0.7,0.8-1l2.6-3h1.9l-3.4,3.6l3.8,5.1H49l-3-4.2l-0.8,0.9v3.3h-1.6v-12.8
		h1.6V198.7z"/>
	<path class="st1" d="M53,199.3c0,2.1,1.4,3,3,3c1.1,0,1.8-0.2,2.4-0.5l0.3,1.1c-0.6,0.3-1.5,0.5-2.9,0.5c-2.7,0-4.3-1.8-4.3-4.4
		c0-2.6,1.5-4.7,4.1-4.7c2.8,0,3.6,2.5,3.6,4.1c0,0.3,0,0.6-0.1,0.7H53z M57.6,198.2c0-1-0.4-2.6-2.2-2.6c-1.6,0-2.3,1.5-2.4,2.6
		H57.6z"/>
	<path class="st1" d="M63,192.2v2.5h2.3v1.2H63v4.7c0,1.1,0.3,1.7,1.2,1.7c0.4,0,0.7-0.1,0.9-0.1l0.1,1.2c-0.3,0.1-0.8,0.2-1.4,0.2
		c-0.7,0-1.3-0.2-1.7-0.7c-0.5-0.5-0.6-1.2-0.6-2.3v-4.8h-1.4v-1.2h1.4v-2.1L63,192.2z"/>
	<path class="st1" d="M72.6,192.3c0,0.5-0.4,1-1,1c-0.6,0-1-0.4-1-1c0-0.6,0.4-1,1-1C72.3,191.3,72.6,191.7,72.6,192.3z M70.9,203.4
		v-8.7h1.6v8.7H70.9z"/>
	<path class="st1" d="M75.1,197.1c0-0.9,0-1.6-0.1-2.4h1.4l0.1,1.4h0c0.4-0.8,1.4-1.6,2.9-1.6c1.2,0,3.1,0.7,3.1,3.7v5.2h-1.6v-5
		c0-1.4-0.5-2.6-2-2.6c-1,0-1.9,0.7-2.1,1.6c-0.1,0.2-0.1,0.5-0.1,0.7v5.2h-1.6V197.1z"/>
	<path class="st1" d="M88.3,203.4v-1.7l1.5-1.4c2.6-2.3,3.8-3.6,3.8-5c0-1-0.6-1.7-1.9-1.7c-1,0-1.9,0.5-2.5,1l-0.8-2
		c0.9-0.7,2.3-1.2,3.8-1.2c2.6,0,4.1,1.5,4.1,3.7c0,2-1.4,3.5-3.1,5l-1.1,0.9v0h4.4v2.3H88.3z"/>
	<path class="st1" d="M107,197.5c0,3.6-1.5,6.1-4.4,6.1c-3,0-4.4-2.7-4.4-6c0-3.4,1.4-6.1,4.5-6.1C105.7,191.5,107,194.3,107,197.5z
		 M100.9,197.6c0,2.7,0.6,4,1.7,4s1.6-1.3,1.6-4c0-2.6-0.6-4-1.7-4C101.6,193.6,100.9,194.9,100.9,197.6z"/>
	<path class="st1" d="M112.3,197.6c0-1.2,0-2.1-0.1-3h2.4l0.1,1.2h0c0.6-0.9,1.7-1.4,2.9-1.4c1.9,0,3.7,1.7,3.7,4.5
		c0,3.2-2,4.7-4,4.7c-1.1,0-1.9-0.4-2.3-1h0v4.4h-2.7V197.6z M115,199.6c0,0.2,0,0.4,0.1,0.6c0.2,0.7,0.8,1.3,1.6,1.3
		c1.2,0,1.9-1,1.9-2.5c0-1.4-0.6-2.5-1.9-2.5c-0.8,0-1.5,0.6-1.6,1.4c0,0.1-0.1,0.3-0.1,0.5V199.6z"/>
	<path class="st1" d="M131.8,198.9c0,3.2-2.3,4.7-4.6,4.7c-2.6,0-4.6-1.7-4.6-4.5s1.9-4.7,4.7-4.7
		C130,194.4,131.8,196.3,131.8,198.9z M125.4,199c0,1.5,0.6,2.6,1.8,2.6c1.1,0,1.7-1.1,1.7-2.6c0-1.3-0.5-2.6-1.7-2.6
		C125.9,196.4,125.4,197.7,125.4,199z"/>
	<path class="st1" d="M133.5,201c0.5,0.3,1.5,0.7,2.4,0.7c0.8,0,1.2-0.3,1.2-0.7s-0.3-0.7-1.3-1c-1.8-0.6-2.5-1.6-2.5-2.6
		c0-1.6,1.4-2.9,3.6-2.9c1,0,1.9,0.2,2.5,0.5l-0.5,1.9c-0.4-0.2-1.2-0.5-1.9-0.5c-0.7,0-1,0.3-1,0.7c0,0.4,0.3,0.6,1.4,1
		c1.7,0.6,2.4,1.4,2.4,2.7c0,1.6-1.3,2.8-3.8,2.8c-1.2,0-2.2-0.3-2.8-0.6L133.5,201z"/>
	<path class="st1" d="M144.4,192.1v2.5h2v2h-2v3.2c0,1.1,0.3,1.5,1.1,1.5c0.3,0,0.6,0,0.8-0.1l0,2.1c-0.4,0.1-1,0.2-1.8,0.2
		c-0.9,0-1.6-0.3-2.1-0.8c-0.5-0.5-0.8-1.4-0.8-2.6v-3.6h-1.2v-2h1.2v-1.9L144.4,192.1z"/>
	<path class="st1" d="M154.4,203.2c-0.5,0.2-1.4,0.4-2.4,0.4c-2.8,0-4.7-1.7-4.7-4.5c0-2.6,1.8-4.7,5-4.7c0.7,0,1.5,0.1,2.1,0.3
		l-0.4,2c-0.3-0.1-0.8-0.3-1.5-0.3c-1.4,0-2.4,1-2.4,2.5c0,1.6,1.1,2.5,2.4,2.5c0.6,0,1.2-0.1,1.6-0.3L154.4,203.2z"/>
	<path class="st1" d="M164.4,198.9c0,3.2-2.3,4.7-4.6,4.7c-2.6,0-4.6-1.7-4.6-4.5s1.9-4.7,4.7-4.7
		C162.6,194.4,164.4,196.3,164.4,198.9z M158.1,199c0,1.5,0.6,2.6,1.8,2.6c1.1,0,1.7-1.1,1.7-2.6c0-1.3-0.5-2.6-1.7-2.6
		C158.5,196.4,158.1,197.7,158.1,199z"/>
	<path class="st1" d="M174.7,190.6v10.2c0,1,0,2,0.1,2.6h-2.4l-0.1-1.3h0c-0.6,1-1.6,1.5-2.8,1.5c-2.1,0-3.8-1.8-3.8-4.5
		c0-3,1.8-4.7,3.9-4.7c1.1,0,1.9,0.4,2.3,1h0v-4.8H174.7z M172,198.3c0-0.1,0-0.3,0-0.5c-0.2-0.7-0.8-1.4-1.6-1.4
		c-1.2,0-1.9,1.1-1.9,2.5c0,1.5,0.7,2.4,1.9,2.4c0.8,0,1.4-0.5,1.6-1.3c0.1-0.2,0.1-0.4,0.1-0.6V198.3z"/>
	<path class="st1" d="M179,199.9c0.1,1.1,1.2,1.7,2.5,1.7c0.9,0,1.7-0.1,2.4-0.4l0.4,1.9c-0.9,0.4-2,0.5-3.2,0.5
		c-3,0-4.7-1.7-4.7-4.5c0-2.2,1.4-4.7,4.4-4.7c2.8,0,3.9,2.2,3.9,4.4c0,0.5-0.1,0.9-0.1,1.1H179z M182.2,198c0-0.7-0.3-1.8-1.5-1.8
		c-1.2,0-1.6,1-1.7,1.8H182.2z"/>
	<path class="st1" d="M186.4,201c0.5,0.3,1.5,0.7,2.4,0.7c0.8,0,1.2-0.3,1.2-0.7s-0.3-0.7-1.3-1c-1.8-0.6-2.5-1.6-2.5-2.6
		c0-1.6,1.4-2.9,3.6-2.9c1,0,1.9,0.2,2.5,0.5l-0.5,1.9c-0.4-0.2-1.2-0.5-1.9-0.5c-0.7,0-1,0.3-1,0.7c0,0.4,0.3,0.6,1.4,1
		c1.7,0.6,2.4,1.4,2.4,2.7c0,1.6-1.3,2.8-3.8,2.8c-1.2,0-2.2-0.3-2.8-0.6L186.4,201z"/>
</g>
</svg>
